<?xml version="1.0" encoding="utf-8"?>
<!-- Generator: Adobe Illustrator 28.0.0, SVG Export Plug-In . SVG Version: 6.00 Build 0)  -->
<svg version="1.1" id="Слой_1" xmlns="http://www.w3.org/2000/svg" xmlns:xlink="http://www.w3.org/1999/xlink" x="0px" y="0px"
	 viewBox="0 0 260 50.2" style="enable-background:new 0 0 260 50.2;" xml:space="preserve">
<style type="text/css">
	.st0{fill:#20251C;}
	.st1{enable-background:new    ;}
	.st2{fill:#1D1D1B;}
</style>
<path class="st0" d="M95.2,2.4v45.3c0,1.3-1.2,2.4-2.6,2.4h-90C1.2,50.1,0,49,0,47.7V2.4C0,1.1,1.1,0,2.6,0h90.1
	C94.1,0,95.2,1.1,95.2,2.4z"/>
<g class="st1">
	<path class="st2" d="M100.6,5.6h6.7v1.6h-4.9v2.2h2.4c0.7,0,1.2,0.1,1.7,0.3s0.8,0.5,1.1,1c0.3,0.5,0.5,1,0.5,1.6
		c0,0.6-0.2,1.2-0.5,1.6c-0.3,0.5-0.7,0.8-1.1,0.9c-0.4,0.2-1,0.3-1.7,0.3h-4.2V5.6z M102.4,13.4h1.8c0.6,0,1,0,1.2-0.1
		c0.2-0.1,0.4-0.2,0.6-0.4c0.2-0.2,0.3-0.5,0.3-0.8c0-0.4-0.1-0.8-0.4-1c-0.3-0.2-0.8-0.3-1.5-0.3h-1.8V13.4z"/>
	<path class="st2" d="M109.9,5.6h6.3V15h-1.8V7.2h-2.7v4c0,1.2,0,2-0.1,2.4c-0.1,0.5-0.3,0.8-0.5,1.1c-0.3,0.3-0.7,0.4-1.3,0.4
		c-0.2,0-0.6,0-1.2-0.1v-1.5l0.4,0c0.4,0,0.6-0.1,0.8-0.2c0.1-0.1,0.2-0.4,0.2-0.8l0-1.6V5.6z"/>
	<path class="st2" d="M126.1,15h-2l-0.8-2.1h-3.6L119,15h-1.9l3.5-9.4h1.9L126.1,15z M122.8,11.3l-1.2-3.5l-1.2,3.5H122.8z"/>
	<path class="st2" d="M127.1,15V5.6h1.8v3.7h3.5V5.6h1.8V15h-1.8v-4.1h-3.5V15H127.1z"/>
	<path class="st2" d="M136.1,5.6h1.8v4c0.4,0,0.7-0.2,0.8-0.3s0.4-0.7,0.7-1.5c0.4-1,0.8-1.7,1.1-1.9c0.4-0.2,1-0.4,1.8-0.4
		c0,0,0.1,0,0.3,0v1.4l-0.3,0c-0.4,0-0.6,0-0.8,0.1c-0.2,0.1-0.3,0.2-0.4,0.4c-0.1,0.2-0.3,0.6-0.5,1.2c-0.1,0.3-0.2,0.6-0.4,0.8
		c-0.1,0.2-0.4,0.4-0.7,0.6c0.4,0.1,0.7,0.4,1,0.7c0.3,0.4,0.6,0.9,0.9,1.5l1.2,2.6h-2.1l-1.1-2.4c0,0-0.1-0.1-0.1-0.2
		c0,0-0.1-0.2-0.2-0.4c-0.2-0.5-0.4-0.8-0.6-0.9c-0.1-0.1-0.4-0.2-0.7-0.2V15h-1.8V5.6z"/>
	<path class="st2" d="M147.9,5.6h6.2v7.8h0.8V17h-1.5V15h-5.6V17h-1.5v-3.6h0.8c0.4-0.8,0.6-1.7,0.7-2.8s0.2-2.4,0.2-4V5.6z
		 M149.7,7.1c0,2.9-0.2,5-0.7,6.3h3.4V7.1H149.7z"/>
	<path class="st2" d="M155.8,10.3c0-1,0.1-1.8,0.4-2.4c0.2-0.5,0.5-0.9,0.8-1.3c0.4-0.4,0.7-0.7,1.2-0.8c0.6-0.2,1.2-0.4,1.9-0.4
		c1.3,0,2.4,0.4,3.2,1.3s1.2,2.1,1.2,3.6c0,1.5-0.4,2.7-1.2,3.6c-0.8,0.9-1.8,1.3-3.2,1.3c-1.3,0-2.4-0.4-3.2-1.3
		S155.8,11.8,155.8,10.3z M157.6,10.3c0,1.1,0.2,1.9,0.7,2.4c0.5,0.6,1.1,0.8,1.8,0.8c0.7,0,1.3-0.3,1.8-0.8
		c0.5-0.5,0.7-1.4,0.7-2.5c0-1.1-0.2-1.9-0.7-2.4s-1-0.8-1.8-0.8c-0.7,0-1.3,0.3-1.8,0.8C157.9,8.4,157.6,9.2,157.6,10.3z"/>
	<path class="st2" d="M165.9,5.6h1.8v4c0.4,0,0.7-0.2,0.8-0.3s0.4-0.7,0.7-1.5c0.4-1,0.8-1.7,1.1-1.9c0.4-0.2,1-0.4,1.8-0.4
		c0,0,0.1,0,0.3,0v1.4l-0.3,0c-0.4,0-0.6,0-0.8,0.1c-0.2,0.1-0.3,0.2-0.4,0.4c-0.1,0.2-0.3,0.6-0.5,1.2c-0.1,0.3-0.2,0.6-0.4,0.8
		c-0.1,0.2-0.4,0.4-0.7,0.6c0.4,0.1,0.7,0.4,1,0.7c0.3,0.4,0.6,0.9,0.9,1.5l1.2,2.6h-2.1l-1.1-2.4c0,0-0.1-0.1-0.1-0.2
		c0,0-0.1-0.2-0.2-0.4c-0.2-0.5-0.4-0.8-0.6-0.9c-0.1-0.1-0.4-0.2-0.7-0.2V15h-1.8V5.6z"/>
	<path class="st2" d="M172.9,5.6h2l2.1,4.9l1.8-4.9h1.9l-3,7.2c-0.3,0.8-0.7,1.4-1,1.8s-0.8,0.6-1.3,0.6c-0.5,0-1,0-1.3-0.1v-1.4
		c0.3,0,0.5,0,0.7,0c0.4,0,0.7-0.1,0.9-0.2c0.2-0.2,0.4-0.5,0.5-1L172.9,5.6z"/>
	<path class="st2" d="M181.6,15V5.6h2.7l1.6,6.4l1.6-6.4h2.7V15h-1.7V7.6l-1.8,7.4H185l-1.8-7.4V15H181.6z"/>
	<path class="st2" d="M192,15V5.6h6.6v1.6h-4.8v2.1h4.5v1.6h-4.5v2.6h5V15H192z"/>
	<path class="st2" d="M200.4,15V5.6h1.8v3.7h3.5V5.6h1.8V15h-1.8v-4.1h-3.5V15H200.4z"/>
	<path class="st2" d="M211.4,15V7.2h-2.7V5.6h7.1v1.6h-2.7V15H211.4z"/>
	<path class="st2" d="M224.3,15h-2l-0.8-2.1H218l-0.7,2.1h-1.9l3.5-9.4h1.9L224.3,15z M221,11.3l-1.2-3.5l-1.2,3.5H221z"/>
</g>
<g class="st1">
	<path class="st2" d="M100.2,21.4h3.6c0.7,0,1.2,0,1.6,0.1c0.3,0.1,0.7,0.2,0.9,0.4s0.5,0.5,0.7,0.8c0.2,0.3,0.3,0.7,0.3,1.1
		c0,0.4-0.1,0.8-0.3,1.2c-0.2,0.4-0.5,0.6-0.9,0.8c0.5,0.2,1,0.5,1.3,0.9c0.3,0.4,0.4,0.9,0.4,1.4c0,0.4-0.1,0.8-0.3,1.3
		s-0.4,0.7-0.8,1s-0.7,0.4-1.2,0.4c-0.3,0-1,0.1-2.2,0.1h-3V21.4z M102,23v2.2h1.2c0.7,0,1.1,0,1.3,0c0.3,0,0.6-0.2,0.7-0.3
		s0.3-0.4,0.3-0.7c0-0.3-0.1-0.5-0.2-0.7c-0.2-0.2-0.4-0.3-0.7-0.3c-0.2,0-0.7,0-1.5,0H102z M102,26.8v2.5h1.7c0.7,0,1.1,0,1.2-0.1
		c0.3-0.1,0.5-0.2,0.7-0.4c0.2-0.2,0.3-0.5,0.3-0.8c0-0.3-0.1-0.5-0.2-0.7c-0.1-0.2-0.3-0.3-0.6-0.4s-0.8-0.1-1.6-0.1H102z"/>
	<path class="st2" d="M109.3,21.4h1.8v3.8h2.4c0.6,0,1.2,0.1,1.6,0.3c0.5,0.2,0.8,0.5,1.1,1c0.3,0.5,0.5,1,0.5,1.6
		c0,0.6-0.2,1.2-0.5,1.6s-0.7,0.8-1.1,0.9c-0.4,0.1-1,0.2-1.7,0.2h-4.2V21.4z M111.1,29.3h1.8c0.6,0,1,0,1.2-0.1
		c0.2-0.1,0.4-0.2,0.6-0.4s0.3-0.5,0.3-0.8c0-0.4-0.1-0.7-0.4-0.9s-0.8-0.3-1.5-0.3h-1.8V29.3z M117.8,21.4h1.8v9.4h-1.8V21.4z"/>
	<path class="st2" d="M127.2,27.4L129,28c-0.3,1-0.7,1.8-1.3,2.3c-0.6,0.5-1.4,0.7-2.4,0.7c-1.2,0-2.2-0.4-2.9-1.3
		c-0.8-0.9-1.1-2-1.1-3.5c0-1.6,0.4-2.8,1.2-3.7s1.8-1.3,3-1.3c1.1,0,2,0.3,2.7,1c0.4,0.4,0.7,1,0.9,1.7l-1.8,0.5
		c-0.1-0.5-0.3-0.9-0.7-1.2c-0.3-0.3-0.7-0.4-1.2-0.4c-0.7,0-1.2,0.3-1.6,0.8c-0.4,0.5-0.6,1.3-0.6,2.4c0,1.2,0.2,2,0.6,2.5
		c0.4,0.5,0.9,0.8,1.6,0.8c0.5,0,0.9-0.2,1.2-0.5C126.8,28.6,127.1,28.1,127.2,27.4z"/>
	<path class="st2" d="M130.6,21.4h1.8v7.8h2.6v-7.8h1.8v7.8h2.7v-7.8h1.8l0,9.4l-10.7,0V21.4z"/>
	<path class="st2" d="M143.1,30.9v-9.4h6.6V23h-4.8v2.1h4.5v1.6h-4.5v2.6h5v1.6H143.1z"/>
	<path class="st2" d="M151.5,30.9v-9.4h6.6V23h-4.8v2.1h4.5v1.6h-4.5v2.6h5v1.6H151.5z"/>
	<path class="st2" d="M163.3,30.9v-9.4h2.9c1.1,0,1.8,0,2.2,0.1c0.5,0.1,0.9,0.4,1.3,0.9c0.3,0.5,0.5,1.1,0.5,1.8
		c0,0.6-0.1,1.1-0.3,1.5c-0.2,0.4-0.5,0.7-0.8,0.9c-0.3,0.2-0.6,0.4-0.9,0.4c-0.4,0.1-1.1,0.1-1.9,0.1h-1.2v3.6H163.3z M165.1,23
		v2.7h1c0.7,0,1.2,0,1.4-0.1s0.4-0.3,0.6-0.5c0.1-0.2,0.2-0.5,0.2-0.7c0-0.3-0.1-0.6-0.3-0.8c-0.2-0.2-0.4-0.4-0.7-0.4
		c-0.2,0-0.6-0.1-1.3-0.1H165.1z"/>
	<path class="st2" d="M170.5,21.4h2l2.1,4.9l1.8-4.9h1.9l-3,7.2c-0.3,0.8-0.7,1.4-1,1.8S173.5,31,173,31c-0.5,0-1,0-1.3-0.1v-1.4
		c0.3,0,0.5,0,0.7,0c0.4,0,0.7-0.1,0.9-0.2c0.2-0.2,0.4-0.5,0.5-1L170.5,21.4z"/>
	<path class="st2" d="M179.3,21.4h1.8v4c0.4,0,0.7-0.2,0.8-0.3s0.4-0.7,0.7-1.5c0.4-1,0.8-1.7,1.1-1.9c0.4-0.2,1-0.4,1.8-0.4
		c0,0,0.1,0,0.3,0v1.4l-0.3,0c-0.4,0-0.6,0-0.8,0.1c-0.2,0.1-0.3,0.2-0.4,0.4s-0.3,0.6-0.5,1.2c-0.1,0.3-0.2,0.6-0.4,0.8
		c-0.1,0.2-0.4,0.4-0.7,0.6c0.4,0.1,0.7,0.4,1,0.7s0.6,0.9,0.9,1.5l1.2,2.6h-2.1l-1.1-2.4c0,0-0.1-0.1-0.1-0.2c0,0-0.1-0.2-0.2-0.4
		c-0.2-0.5-0.4-0.8-0.6-0.9c-0.1-0.1-0.4-0.2-0.7-0.2v4.1h-1.8V21.4z"/>
	<path class="st2" d="M186.5,26.2c0-1,0.1-1.8,0.4-2.4c0.2-0.5,0.5-0.9,0.8-1.3c0.4-0.4,0.7-0.7,1.2-0.8c0.6-0.2,1.2-0.4,1.9-0.4
		c1.3,0,2.4,0.4,3.2,1.3c0.8,0.9,1.2,2.1,1.2,3.6c0,1.5-0.4,2.7-1.2,3.6c-0.8,0.9-1.8,1.3-3.2,1.3c-1.3,0-2.4-0.4-3.2-1.3
		S186.5,27.7,186.5,26.2z M188.4,26.1c0,1.1,0.2,1.9,0.7,2.4s1.1,0.8,1.8,0.8s1.3-0.3,1.8-0.8c0.5-0.5,0.7-1.4,0.7-2.5
		c0-1.1-0.2-1.9-0.7-2.4c-0.5-0.5-1-0.8-1.8-0.8s-1.3,0.3-1.8,0.8C188.6,24.3,188.4,25.1,188.4,26.1z"/>
	<path class="st2" d="M196.6,21.4h3.6c0.7,0,1.2,0,1.6,0.1s0.7,0.2,0.9,0.4c0.3,0.2,0.5,0.5,0.7,0.8c0.2,0.3,0.3,0.7,0.3,1.1
		c0,0.4-0.1,0.8-0.3,1.2c-0.2,0.4-0.5,0.6-0.9,0.8c0.5,0.2,1,0.5,1.3,0.9c0.3,0.4,0.4,0.9,0.4,1.4c0,0.4-0.1,0.8-0.3,1.3
		s-0.4,0.7-0.8,1s-0.7,0.4-1.2,0.4c-0.3,0-1,0.1-2.2,0.1h-3V21.4z M198.4,23v2.2h1.2c0.7,0,1.1,0,1.3,0c0.3,0,0.6-0.2,0.7-0.3
		c0.2-0.2,0.3-0.4,0.3-0.7c0-0.3-0.1-0.5-0.2-0.7c-0.2-0.2-0.4-0.3-0.7-0.3c-0.2,0-0.7,0-1.5,0H198.4z M198.4,26.8v2.5h1.7
		c0.7,0,1.1,0,1.2-0.1c0.3-0.1,0.5-0.2,0.7-0.4s0.3-0.5,0.3-0.8c0-0.3-0.1-0.5-0.2-0.7c-0.1-0.2-0.3-0.3-0.6-0.4
		c-0.2-0.1-0.8-0.1-1.6-0.1H198.4z"/>
	<path class="st2" d="M205,26.2c0-1,0.1-1.8,0.4-2.4c0.2-0.5,0.5-0.9,0.8-1.3c0.4-0.4,0.7-0.7,1.2-0.8c0.6-0.2,1.2-0.4,1.9-0.4
		c1.3,0,2.4,0.4,3.2,1.3c0.8,0.9,1.2,2.1,1.2,3.6c0,1.5-0.4,2.7-1.2,3.6c-0.8,0.9-1.8,1.3-3.2,1.3c-1.3,0-2.4-0.4-3.2-1.3
		S205,27.7,205,26.2z M206.8,26.1c0,1.1,0.2,1.9,0.7,2.4s1.1,0.8,1.8,0.8s1.3-0.3,1.8-0.8c0.5-0.5,0.7-1.4,0.7-2.5
		c0-1.1-0.2-1.9-0.7-2.4c-0.5-0.5-1-0.8-1.8-0.8s-1.3,0.3-1.8,0.8C207.1,24.3,206.8,25.1,206.8,26.1z"/>
	<path class="st2" d="M215.6,21.4h6.2v7.8h0.8v3.6h-1.5v-2.1h-5.6v2.1H214v-3.6h0.8c0.4-0.8,0.6-1.7,0.7-2.8s0.2-2.4,0.2-4V21.4z
		 M217.4,23c0,2.9-0.2,5-0.7,6.3h3.4V23H217.4z"/>
	<path class="st2" d="M229.6,27.4l1.8,0.6c-0.3,1-0.7,1.8-1.3,2.3c-0.6,0.5-1.4,0.7-2.4,0.7c-1.2,0-2.2-0.4-2.9-1.3s-1.1-2-1.1-3.5
		c0-1.6,0.4-2.8,1.2-3.7c0.8-0.9,1.8-1.3,3-1.3c1.1,0,2,0.3,2.7,1c0.4,0.4,0.7,1,0.9,1.7l-1.8,0.5c-0.1-0.5-0.3-0.9-0.7-1.2
		c-0.3-0.3-0.7-0.4-1.2-0.4c-0.7,0-1.2,0.3-1.6,0.8c-0.4,0.5-0.6,1.3-0.6,2.4c0,1.2,0.2,2,0.6,2.5c0.4,0.5,0.9,0.8,1.6,0.8
		c0.5,0,0.9-0.2,1.2-0.5C229.2,28.6,229.4,28.1,229.6,27.4z"/>
	<path class="st2" d="M234.6,30.9V23h-2.7v-1.6h7.1V23h-2.7v7.8H234.6z"/>
	<path class="st2" d="M240.2,21.4h3.6c0.7,0,1.2,0,1.6,0.1s0.7,0.2,0.9,0.4c0.3,0.2,0.5,0.5,0.7,0.8c0.2,0.3,0.3,0.7,0.3,1.1
		c0,0.4-0.1,0.8-0.3,1.2c-0.2,0.4-0.5,0.6-0.9,0.8c0.5,0.2,1,0.5,1.3,0.9c0.3,0.4,0.4,0.9,0.4,1.4c0,0.4-0.1,0.8-0.3,1.3
		s-0.4,0.7-0.8,1s-0.7,0.4-1.2,0.4c-0.3,0-1,0.1-2.2,0.1h-3V21.4z M242,23v2.2h1.2c0.7,0,1.1,0,1.3,0c0.3,0,0.6-0.2,0.7-0.3
		c0.2-0.2,0.3-0.4,0.3-0.7c0-0.3-0.1-0.5-0.2-0.7c-0.2-0.2-0.4-0.3-0.7-0.3c-0.2,0-0.7,0-1.5,0H242z M242,26.8v2.5h1.7
		c0.7,0,1.1,0,1.2-0.1c0.3-0.1,0.5-0.2,0.7-0.4s0.3-0.5,0.3-0.8c0-0.3-0.1-0.5-0.2-0.7c-0.1-0.2-0.3-0.3-0.6-0.4
		c-0.2-0.1-0.8-0.1-1.6-0.1H242z"/>
	<path class="st2" d="M248.6,26.2c0-1,0.1-1.8,0.4-2.4c0.2-0.5,0.5-0.9,0.8-1.3c0.4-0.4,0.7-0.7,1.2-0.8c0.6-0.2,1.2-0.4,1.9-0.4
		c1.3,0,2.4,0.4,3.2,1.3c0.8,0.9,1.2,2.1,1.2,3.6c0,1.5-0.4,2.7-1.2,3.6c-0.8,0.9-1.8,1.3-3.2,1.3c-1.3,0-2.4-0.4-3.2-1.3
		S248.6,27.7,248.6,26.2z M250.4,26.1c0,1.1,0.2,1.9,0.7,2.4s1.1,0.8,1.8,0.8s1.3-0.3,1.8-0.8c0.5-0.5,0.7-1.4,0.7-2.5
		c0-1.1-0.2-1.9-0.7-2.4c-0.5-0.5-1-0.8-1.8-0.8s-1.3,0.3-1.8,0.8C250.6,24.3,250.4,25.1,250.4,26.1z"/>
	<path class="st2" d="M100.2,46.7v-9.4h2.9c1.1,0,1.8,0,2.2,0.1c0.5,0.1,0.9,0.4,1.3,0.9s0.5,1.1,0.5,1.8c0,0.6-0.1,1.1-0.3,1.5
		c-0.2,0.4-0.5,0.7-0.8,0.9c-0.3,0.2-0.6,0.4-0.9,0.4c-0.4,0.1-1.1,0.1-1.9,0.1H102v3.6H100.2z M102,38.8v2.7h1c0.7,0,1.2,0,1.4-0.1
		s0.4-0.3,0.6-0.5c0.1-0.2,0.2-0.5,0.2-0.7c0-0.3-0.1-0.6-0.3-0.8c-0.2-0.2-0.4-0.4-0.7-0.4c-0.2,0-0.6-0.1-1.3-0.1H102z"/>
	<path class="st2" d="M114,43.2l1.8,0.6c-0.3,1-0.7,1.8-1.3,2.3c-0.6,0.5-1.4,0.7-2.4,0.7c-1.2,0-2.2-0.4-2.9-1.3
		c-0.8-0.9-1.1-2-1.1-3.5c0-1.6,0.4-2.8,1.2-3.7s1.8-1.3,3-1.3c1.1,0,2,0.3,2.7,1c0.4,0.4,0.7,1,0.9,1.7l-1.8,0.5
		c-0.1-0.5-0.3-0.9-0.7-1.2c-0.3-0.3-0.7-0.4-1.2-0.4c-0.7,0-1.2,0.3-1.6,0.8c-0.4,0.5-0.6,1.3-0.6,2.4c0,1.2,0.2,2,0.6,2.5
		s0.9,0.8,1.6,0.8c0.5,0,0.9-0.2,1.2-0.5S113.8,43.9,114,43.2z"/>
	<path class="st2" d="M117.3,37.2h3.6c0.7,0,1.2,0,1.6,0.1c0.3,0.1,0.7,0.2,0.9,0.4s0.5,0.5,0.7,0.8c0.2,0.3,0.3,0.7,0.3,1.1
		c0,0.4-0.1,0.8-0.3,1.2c-0.2,0.4-0.5,0.6-0.9,0.8c0.5,0.2,1,0.5,1.3,0.9c0.3,0.4,0.4,0.9,0.4,1.4c0,0.4-0.1,0.8-0.3,1.3
		s-0.4,0.7-0.8,1s-0.7,0.4-1.2,0.4c-0.3,0-1,0.1-2.2,0.1h-3V37.2z M119.1,38.8V41h1.2c0.7,0,1.1,0,1.3,0c0.3,0,0.6-0.2,0.7-0.3
		s0.3-0.4,0.3-0.7c0-0.3-0.1-0.5-0.2-0.7c-0.2-0.2-0.4-0.3-0.7-0.3c-0.2,0-0.7,0-1.5,0H119.1z M119.1,42.6v2.5h1.7
		c0.7,0,1.1,0,1.2-0.1c0.3-0.1,0.5-0.2,0.7-0.4c0.2-0.2,0.3-0.5,0.3-0.8c0-0.3-0.1-0.5-0.2-0.7c-0.1-0.2-0.3-0.3-0.6-0.4
		c-0.2-0.1-0.8-0.1-1.6-0.1H119.1z"/>
</g>
<g>
	<g>
		<path d="M29.1,18.6c0,2-0.5,3.7-1.5,5.2c-1,1.5-2.4,2.7-4.2,3.5s-4,1.2-6.4,1.2h-2.6c0,2.6,0,5.2,0,7.8c-2.9,1.5-5.8,3-8.6,4.5
			c0-10.6,0-21.2,0-31.8h11.7c4,0,7,0.8,8.9,2.3C28.2,13,29.1,15.4,29.1,18.6z M20,18.9c0-1.2-0.3-2.1-1-2.7c-0.7-0.6-1.7-0.9-3-0.9
			h-1.6v7.1h1.9C18.7,22.5,20,21.3,20,18.9z"/>
		<path d="M89.6,29.1c0,2.8-1,5-3,6.5s-4.8,2.3-8.5,2.3h-13V9.2h12.2c7.6,0,11.4,2.3,11.4,6.9c0,1-0.2,1.9-0.7,2.7
			c-0.5,0.8-1.2,1.6-2.2,2.2s-2.1,1.1-3.2,1.3v0.1c1.4,0.2,2.6,0.6,3.7,1.2s1.9,1.5,2.5,2.4C89.3,27,89.6,28,89.6,29.1z M79.5,17.6
			c0-1.8-1.4-2.7-4.2-2.7h-1.6v5.4h2.5c1,0,1.7-0.3,2.4-0.8C79.2,19.1,79.5,18.4,79.5,17.6z M80.4,29c0-0.8-0.3-1.5-0.9-2
			s-1.4-0.8-2.4-0.8h-3.4V32h2.9c1.2,0,2.1-0.3,2.8-0.8C80.1,30.7,80.4,29.9,80.4,29z"/>
		<path d="M56.1,26.7c1,0.4,2,0.7,3,1c-0.2,1.1-1,4.7-4.3,7.5c-3.1,2.7-6.6,3-7.9,3.1c-0.5,0-4.2,0.2-7.9-1.8
			c-2.2-1.2-3.9-2.8-5.1-5c-1.2-2.1-1.7-4.6-1.7-7.4c0-0.2,0-0.4,0-0.6s0-0.4,0-0.6c0-2.8,0.6-5.3,1.7-7.4c1.2-2.2,2.9-3.8,5.1-5
			c3.7-2,7.4-1.8,7.9-1.8c1.3,0.1,4.7,0.4,7.9,3.1c3.3,2.8,4.1,6.4,4.3,7.5c-1,0.3-2,0.7-3,1c-1.3,0.5-2.6,0.9-3.9,1.4
			c0.1-0.3,0.6-2.2-0.6-3.9c-1-1.4-2.4-1.7-2.8-1.8c-2.8-0.6-5.1,1.7-5.4,2c-1,1-1.7,2.3-1.9,3.9c0,0.1,0,0.2,0,0.4
			c0,0.3-0.1,0.5-0.1,0.8c0,0.1,0,0.2,0,0.4c0,0.1,0,0.3,0,0.4c0,0.3,0,0.5,0.1,0.8c0,0.1,0,0.3,0,0.4c0.2,1.6,0.9,2.9,1.9,3.9
			c0.3,0.3,2.6,2.6,5.4,2c0.4-0.1,1.9-0.4,2.8-1.8c1.2-1.7,0.7-3.6,0.6-3.9C53.5,25.7,54.8,26.2,56.1,26.7z"/>
		<rect x="5.7" y="3.7" width="82.7" height="2.9"/>
		<rect x="5.7" y="43.5" width="82.7" height="2.9"/>
	</g>
</g>
</svg>
