<?xml version="1.0" encoding="utf-8"?>
<!-- Generator: Adobe Illustrator 28.0.0, SVG Export Plug-In . SVG Version: 6.00 Build 0)  -->
<svg version="1.1" id="Слой_1" xmlns="http://www.w3.org/2000/svg" xmlns:xlink="http://www.w3.org/1999/xlink" x="0px" y="0px"
	 viewBox="0 0 268.5 56" style="enable-background:new 0 0 268.5 56;" xml:space="preserve">
<style type="text/css">
	.st0{enable-background:new    ;}
	.st1{fill:#1D1D1B;}
	.st2{fill:#20251C;}
</style>
<g>
	<g class="st0">
		<path class="st1" d="M112.3,2.5h6.3v1.2h-5v3.2h2.3c0.9,0,1.5,0.1,2.1,0.3c0.5,0.2,0.9,0.5,1.2,1c0.3,0.5,0.5,1,0.5,1.7
			c0,0.5-0.1,1-0.3,1.5c-0.2,0.5-0.5,0.8-1,1.1c-0.4,0.3-1.2,0.4-2.2,0.4h-3.8V2.5z M113.6,11.7h2.6c0.7,0,1.2-0.1,1.6-0.4
			c0.3-0.3,0.5-0.7,0.5-1.3c0-0.4-0.1-0.8-0.3-1.1s-0.5-0.5-0.8-0.6c-0.4-0.1-1-0.1-1.8-0.1h-1.7V11.7z"/>
		<path class="st1" d="M121.5,5.4h5.6v7.4h-1.2V6.4h-3.2v3.7c0,0.9,0,1.4-0.1,1.7s-0.2,0.5-0.4,0.7s-0.6,0.3-1,0.3
			c-0.3,0-0.6,0-1-0.1v-1.1h0.5c0.2,0,0.4,0,0.5-0.1s0.2-0.1,0.2-0.3c0-0.1,0.1-0.5,0.1-1.1V5.4z"/>
		<path class="st1" d="M129.9,13.8c-0.1,1.2-0.8,1.8-2,1.8c-1.2,0-1.8-0.6-2-1.8h0.8c0.1,0.6,0.5,0.9,1.1,0.9c0.7,0,1.1-0.3,1.2-0.9
			H129.9z"/>
		<path class="st1" d="M133.5,11.9c-0.4,0.4-0.9,0.7-1.3,0.8s-0.9,0.2-1.3,0.2c-0.8,0-1.4-0.2-1.8-0.6c-0.4-0.4-0.6-0.9-0.6-1.5
			c0-0.4,0.1-0.7,0.2-1c0.2-0.3,0.4-0.5,0.6-0.7s0.5-0.3,0.9-0.4c0.2-0.1,0.6-0.1,1.1-0.2c1-0.1,1.7-0.3,2.1-0.4c0-0.2,0-0.3,0-0.3
			c0-0.5-0.1-0.9-0.3-1.1c-0.3-0.3-0.8-0.4-1.4-0.4c-0.6,0-1,0.1-1.2,0.3c-0.3,0.2-0.5,0.6-0.6,1.1l-1.2-0.2c0.1-0.5,0.3-1,0.5-1.3
			c0.2-0.3,0.6-0.6,1.1-0.8c0.5-0.2,1-0.3,1.6-0.3c0.6,0,1.1,0.1,1.5,0.2c0.4,0.1,0.7,0.3,0.8,0.6s0.3,0.5,0.4,0.9
			c0,0.2,0.1,0.6,0.1,1.2v1.7c0,1.2,0,1.9,0.1,2.2c0.1,0.3,0.2,0.6,0.3,0.9h-1.3C133.6,12.5,133.5,12.2,133.5,11.9z M133.4,9.1
			c-0.4,0.2-1.1,0.3-2,0.5c-0.5,0.1-0.8,0.2-1,0.3c-0.2,0.1-0.4,0.2-0.5,0.4c-0.1,0.2-0.2,0.4-0.2,0.6c0,0.3,0.1,0.6,0.4,0.8
			c0.2,0.2,0.6,0.3,1.1,0.3c0.5,0,0.9-0.1,1.2-0.3c0.4-0.2,0.6-0.5,0.8-0.9c0.1-0.3,0.2-0.7,0.2-1.3V9.1z"/>
		<path class="st1" d="M137.8,0.9c0,1.1-0.5,1.6-1.3,1.6c-0.3,0-0.6-0.1-1.1-0.4c-0.3-0.2-0.5-0.3-0.7-0.3c-0.4,0-0.5,0.2-0.5,0.7
			h-0.9c0-0.5,0.1-0.8,0.3-1.1c0.2-0.3,0.6-0.5,1-0.5c0.3,0,0.7,0.1,1.1,0.4c0.3,0.1,0.5,0.2,0.6,0.2c0.3,0,0.4-0.2,0.5-0.7H137.8z
			 M137.8,2.6c0,1.1-0.5,1.6-1.3,1.6c-0.3,0-0.6-0.1-1.1-0.4c-0.3-0.2-0.5-0.3-0.7-0.3c-0.4,0-0.5,0.2-0.5,0.7h-0.9
			c0-0.5,0.1-0.8,0.3-1.1c0.2-0.3,0.6-0.5,1-0.5c0.3,0,0.7,0.1,1.1,0.4c0.3,0.1,0.5,0.2,0.6,0.2c0.3,0,0.4-0.2,0.5-0.7H137.8z"/>
		<path class="st1" d="M136.4,5.4h1.2v3.1h3.3V5.4h1.2v7.4H141V9.5h-3.3v3.3h-1.2V5.4z"/>
		<path class="st1" d="M144,5.4h1.2v3.2c0.4,0,0.6-0.1,0.8-0.2c0.2-0.2,0.4-0.6,0.7-1.3c0.2-0.6,0.4-1,0.6-1.2
			c0.1-0.2,0.3-0.3,0.5-0.4c0.2-0.1,0.5-0.1,0.9-0.1h0.2v1l-0.3,0c-0.3,0-0.5,0-0.6,0.1c-0.1,0.1-0.2,0.4-0.4,0.9
			c-0.2,0.5-0.3,0.8-0.5,1s-0.4,0.4-0.7,0.5c0.5,0.1,1,0.6,1.5,1.5l1.3,2.3h-1.3l-1.3-2.3c-0.3-0.5-0.5-0.8-0.7-0.9
			c-0.2-0.1-0.4-0.2-0.7-0.2v3.4H144V5.4z"/>
		<path class="st1" d="M150.2,3.5c0,0.4-0.1,0.7-0.3,0.9s-0.5,0.4-0.8,0.4c-0.3,0-0.6-0.1-0.9-0.4s-0.3-0.6-0.3-0.9
			c0-0.3,0.1-0.6,0.4-0.9c0.2-0.2,0.5-0.4,0.8-0.4c0.3,0,0.6,0.1,0.9,0.4S150.2,3.1,150.2,3.5z M149.8,3.4c0-0.2-0.1-0.4-0.2-0.5
			c-0.1-0.1-0.3-0.2-0.5-0.2c-0.2,0-0.4,0.1-0.5,0.2c-0.1,0.1-0.2,0.3-0.2,0.5c0,0.2,0.1,0.4,0.2,0.5c0.1,0.2,0.3,0.2,0.5,0.2
			c0.2,0,0.4-0.1,0.5-0.2C149.7,3.8,149.8,3.7,149.8,3.4z"/>
		<path class="st1" d="M154.7,5.4h4.9v6.4h0.8v3.1h-1v-2.1h-5.6v2.1h-1v-3.1h0.6C154.3,10.6,154.7,8.4,154.7,5.4z M155.7,6.4
			c-0.1,2.4-0.4,4.2-1.1,5.4h3.8V6.4H155.7z"/>
		<path class="st1" d="M155.6,15.1v-1.4h1.4v1.4H155.6z"/>
		<path class="st1" d="M161.2,9.1c0-1.4,0.4-2.4,1.1-3.1c0.6-0.6,1.3-0.8,2.2-0.8c1,0,1.8,0.3,2.4,1c0.6,0.7,0.9,1.6,0.9,2.8
			c0,1-0.1,1.7-0.4,2.3s-0.7,1-1.2,1.3c-0.5,0.3-1.1,0.5-1.7,0.5c-1,0-1.8-0.3-2.4-1C161.5,11.3,161.2,10.3,161.2,9.1z M162.5,9.1
			c0,1,0.2,1.7,0.6,2.1c0.4,0.5,0.9,0.7,1.5,0.7c0.6,0,1.1-0.2,1.5-0.7s0.6-1.2,0.6-2.2c0-0.9-0.2-1.6-0.6-2.1
			c-0.4-0.5-0.9-0.7-1.5-0.7c-0.6,0-1.1,0.2-1.5,0.7C162.7,7.4,162.5,8.1,162.5,9.1z"/>
		<path class="st1" d="M170.6,2.6c0,1.1-0.5,1.6-1.3,1.6c-0.3,0-0.6-0.1-1.1-0.4c-0.3-0.2-0.5-0.3-0.7-0.3c-0.3,0-0.5,0.2-0.5,0.7
			h-0.9c0-0.5,0.1-0.8,0.3-1.1c0.2-0.3,0.6-0.5,1-0.5c0.3,0,0.7,0.1,1.1,0.4c0.3,0.1,0.5,0.2,0.6,0.2c0.3,0,0.4-0.2,0.5-0.6H170.6z"
			/>
		<path class="st1" d="M166.7,0h1.6l-1.5,2h-1L166.7,0z"/>
		<path class="st1" d="M169.3,5.4h1.2v3.2c0.4,0,0.6-0.1,0.8-0.2c0.2-0.2,0.4-0.6,0.7-1.3c0.2-0.6,0.4-1,0.6-1.2
			c0.1-0.2,0.3-0.3,0.5-0.4s0.5-0.1,0.9-0.1h0.2v1l-0.3,0c-0.3,0-0.5,0-0.6,0.1c-0.1,0.1-0.2,0.4-0.4,0.9c-0.2,0.5-0.3,0.8-0.5,1
			c-0.2,0.2-0.4,0.4-0.7,0.5c0.5,0.1,1,0.6,1.5,1.5l1.3,2.3h-1.3l-1.3-2.3c-0.3-0.5-0.5-0.8-0.7-0.9c-0.2-0.1-0.4-0.2-0.7-0.2v3.4
			h-1.2V5.4z"/>
		<path class="st1" d="M177,4.3h-1V2.1h-4v-1h5V4.3z"/>
		<path class="st1" d="M175.3,15.7l-0.1-1.2c0.3,0.1,0.5,0.1,0.7,0.1c0.3,0,0.5,0,0.6-0.1c0.2-0.1,0.3-0.2,0.4-0.4
			c0.1-0.1,0.2-0.4,0.4-0.9c0-0.1,0.1-0.2,0.1-0.3l-2.7-7.5h1.3l1.5,4.3c0.2,0.5,0.4,1.1,0.5,1.7c0.1-0.6,0.3-1.1,0.5-1.7l1.5-4.3
			h1.2l-2.7,7.6c-0.3,0.8-0.5,1.4-0.7,1.7c-0.2,0.4-0.5,0.7-0.7,0.9s-0.6,0.3-1,0.3C175.9,15.8,175.6,15.8,175.3,15.7z"/>
		<path class="st1" d="M182.1,5.4h1.9l1.9,6l2.1-6h1.7v7.4h-1.2v-6l-2.1,6h-1.1l-2-6.3v6.3h-1.2V5.4z"/>
		<path class="st1" d="M196.3,10.4l1.2,0.2c-0.2,0.8-0.6,1.4-1.1,1.8c-0.5,0.4-1.2,0.6-2,0.6c-1,0-1.9-0.3-2.5-1
			c-0.6-0.7-0.9-1.6-0.9-2.8c0-1.3,0.3-2.2,0.9-2.9c0.6-0.7,1.4-1,2.4-1c0.9,0,1.7,0.3,2.3,1c0.6,0.7,0.9,1.6,0.9,2.9
			c0,0.1,0,0.2,0,0.3h-5.3c0,0.8,0.3,1.4,0.7,1.9c0.4,0.4,0.9,0.7,1.5,0.7c0.4,0,0.8-0.1,1.1-0.4S196.1,10.9,196.3,10.4z M192.3,8.4
			h4c-0.1-0.6-0.2-1.1-0.5-1.4c-0.4-0.5-0.9-0.7-1.5-0.7c-0.6,0-1,0.2-1.4,0.6C192.6,7.2,192.4,7.7,192.3,8.4z"/>
		<path class="st1" d="M199,5.4h1.2v3.1h3.3V5.4h1.2v7.4h-1.2V9.5h-3.3v3.3H199V5.4z"/>
		<path class="st1" d="M205.9,5.4h5.7v1h-2.3v6.4h-1.2V6.4h-2.3V5.4z"/>
		<path class="st1" d="M217.3,11.9c-0.4,0.4-0.9,0.7-1.3,0.8c-0.4,0.2-0.9,0.2-1.3,0.2c-0.8,0-1.4-0.2-1.8-0.6s-0.6-0.9-0.6-1.5
			c0-0.4,0.1-0.7,0.2-1c0.2-0.3,0.4-0.5,0.6-0.7c0.3-0.2,0.5-0.3,0.9-0.4c0.2-0.1,0.6-0.1,1.1-0.2c1-0.1,1.7-0.3,2.1-0.4
			c0-0.2,0-0.3,0-0.3c0-0.5-0.1-0.9-0.3-1.1c-0.3-0.3-0.8-0.4-1.4-0.4c-0.6,0-1,0.1-1.2,0.3c-0.3,0.2-0.5,0.6-0.6,1.1l-1.2-0.2
			c0.1-0.5,0.3-1,0.5-1.3c0.2-0.3,0.6-0.6,1.1-0.8c0.5-0.2,1-0.3,1.6-0.3c0.6,0,1.1,0.1,1.5,0.2c0.4,0.1,0.7,0.3,0.8,0.6
			s0.3,0.5,0.4,0.9c0,0.2,0.1,0.6,0.1,1.2v1.7c0,1.2,0,1.9,0.1,2.2c0.1,0.3,0.2,0.6,0.3,0.9h-1.3C217.4,12.5,217.3,12.2,217.3,11.9z
			 M217.2,9.1c-0.4,0.2-1.1,0.3-2,0.5c-0.5,0.1-0.8,0.2-1,0.3c-0.2,0.1-0.4,0.2-0.5,0.4c-0.1,0.2-0.2,0.4-0.2,0.6
			c0,0.3,0.1,0.6,0.4,0.8c0.2,0.2,0.6,0.3,1.1,0.3c0.5,0,0.9-0.1,1.2-0.3c0.4-0.2,0.6-0.5,0.8-0.9c0.1-0.3,0.2-0.7,0.2-1.3V9.1z"/>
	</g>
	<g class="st0">
		<path class="st1" d="M119.4,19.4h-0.7v0.7h0.7v2h-0.7v0.7h0.7v2h-0.7v0.7h0.7v2h-0.7v0.7h0.7v2h-0.7v0.7h0.7v2h-0.7v0.7h0.7v0.7
			h-8.2v-2h0.7v-0.7h-0.7v-2h0.7v-0.7h-0.7v-2h0.7v-0.7h-0.7v-2h0.7v-0.7h-0.7v-2h0.7v-0.7h-0.7v-2h0.7v-0.7h0.7v0.7h0.7v-0.7h0.7
			v0.7h0.7v-0.7h0.7v0.7h0.7v-0.7h0.7v0.7h0.7v-0.7h0.7v0.7h0.7v-0.7h0.7V19.4z M112.6,19.4h-0.7v0.7h0.7V19.4z M111.9,22.1v0.7h0.7
			v-0.7H111.9z M111.9,24.8v0.7h0.7v-0.7H111.9z M111.9,27.6v0.7h0.7v-0.7H111.9z M111.9,30.3v0.7h0.7v-0.7H111.9z M111.9,33v0.7
			h0.7V33H111.9z M113.2,20.8h-0.7v0.7h0.7V20.8z M113.2,23.5h-0.7v0.7h0.7V23.5z M113.2,26.2h-0.7v0.7h0.7V26.2z M113.2,29.6v-0.7
			h-0.7v0.7H113.2z M113.2,32.3v-0.7h-0.7v0.7H113.2z M113.9,19.4h-0.7v0.7h0.7V19.4z M113.2,22.1v0.7h0.7v-0.7H113.2z M113.2,24.8
			v0.7h0.7v-0.7H113.2z M113.9,28.2v-0.7h-0.7v0.7H113.9z M113.2,30.3v0.7h0.7v-0.7H113.2z M113.2,33v0.7h0.7V33H113.2z M114.6,20.8
			h-0.7v0.7h0.7V20.8z M114.6,23.5h-0.7v0.7h0.7V23.5z M113.9,26.2v0.7h0.7v-0.7H113.9z M114.6,29.6v-0.7h-0.7v0.7H114.6z
			 M114.6,32.3v-0.7h-0.7v0.7H114.6z M115.3,19.4h-0.7v0.7h0.7V19.4z M114.6,22.1v0.7h0.7v-0.7H114.6z M114.6,24.8v0.7h0.7v-0.7
			H114.6z M114.6,27.6v0.7h0.7v-0.7H114.6z M114.6,30.3v0.7h0.7v-0.7H114.6z M114.6,33v0.7h0.7V33H114.6z M116,20.8h-0.7v0.7h0.7
			V20.8z M116,23.5h-0.7v0.7h0.7V23.5z M115.3,26.2v0.7h0.7v-0.7H115.3z M116,29.6v-0.7h-0.7v0.7H116z M116,32.3v-0.7h-0.7v0.7H116z
			 M116.7,19.4H116v0.7h0.7V19.4z M116,22.1v0.7h0.7v-0.7H116z M116,24.8v0.7h0.7v-0.7H116z M116,27.6v0.7h0.7v-0.7H116z M116,30.3
			v0.7h0.7v-0.7H116z M116,33v0.7h0.7V33H116z M117.3,20.8h-0.7v0.7h0.7V20.8z M117.3,23.5h-0.7v0.7h0.7V23.5z M116.7,26.2v0.7h0.7
			v-0.7H116.7z M117.3,29.6v-0.7h-0.7v0.7H117.3z M117.3,32.3v-0.7h-0.7v0.7H117.3z M118,19.4h-0.7v0.7h0.7V19.4z M117.3,22.1v0.7
			h0.7v-0.7H117.3z M117.3,24.8v0.7h0.7v-0.7H117.3z M117.3,27.6v0.7h0.7v-0.7H117.3z M117.3,30.3v0.7h0.7v-0.7H117.3z M117.3,33
			v0.7h0.7V33H117.3z M118.7,20.8H118v0.7h0.7V20.8z M118.7,23.5H118v0.7h0.7V23.5z M118,26.2v0.7h0.7v-0.7H118z M118.7,29.6v-0.7
			H118v0.7H118.7z M118.7,32.3v-0.7H118v0.7H118.7z"/>
		<path class="st1" d="M127.6,19.4h-0.7v0.7h0.7v2h-0.7v0.7h0.7v2h-0.7v0.7h0.7v2h-0.7v0.7h0.7v2h-0.7v0.7h0.7v2h-0.7v0.7h0.7v0.7
			h-8.2v-2h0.7v-0.7h-0.7v-2h0.7v-0.7h-0.7v-2h0.7v-0.7h-0.7v-2h0.7v-0.7h-0.7v-2h0.7v-0.7h-0.7v-2h0.7v-0.7h0.7v0.7h0.7v-0.7h0.7
			v0.7h0.7v-0.7h0.7v0.7h0.7v-0.7h0.7v0.7h0.7v-0.7h0.7v0.7h0.7v-0.7h0.7V19.4z M120.7,19.4h-0.7v0.7h0.7V19.4z M120.1,22.1v0.7h0.7
			v-0.7H120.1z M120.1,24.8v0.7h0.7v-0.7H120.1z M120.1,27.6v0.7h0.7v-0.7H120.1z M120.1,30.3v0.7h0.7v-0.7H120.1z M120.1,33v0.7
			h0.7V33H120.1z M121.4,20.8h-0.7v0.7h0.7V20.8z M121.4,23.5h-0.7v0.7h0.7V23.5z M121.4,26.2h-0.7v0.7h0.7V26.2z M121.4,29.6v-0.7
			h-0.7v0.7H121.4z M121.4,32.3v-0.7h-0.7v0.7H121.4z M122.1,19.4h-0.7v0.7h0.7V19.4z M121.4,22.1v0.7h0.7v-0.7H121.4z M121.4,24.8
			v0.7h0.7v-0.7H121.4z M122.1,28.2v-0.7h-0.7v0.7H122.1z M121.4,30.3v0.7h0.7v-0.7H121.4z M121.4,33v0.7h0.7V33H121.4z M122.8,20.8
			h-0.7v0.7h0.7V20.8z M122.8,23.5h-0.7v0.7h0.7V23.5z M122.1,26.2v0.7h0.7v-0.7H122.1z M122.8,29.6v-0.7h-0.7v0.7H122.8z
			 M122.8,32.3v-0.7h-0.7v0.7H122.8z M123.5,19.4h-0.7v0.7h0.7V19.4z M122.8,22.1v0.7h0.7v-0.7H122.8z M122.8,24.8v0.7h0.7v-0.7
			H122.8z M122.8,27.6v0.7h0.7v-0.7H122.8z M122.8,30.3v0.7h0.7v-0.7H122.8z M122.8,33v0.7h0.7V33H122.8z M124.1,20.8h-0.7v0.7h0.7
			V20.8z M124.1,23.5h-0.7v0.7h0.7V23.5z M123.5,26.2v0.7h0.7v-0.7H123.5z M124.1,29.6v-0.7h-0.7v0.7H124.1z M124.1,32.3v-0.7h-0.7
			v0.7H124.1z M124.8,19.4h-0.7v0.7h0.7V19.4z M124.1,22.1v0.7h0.7v-0.7H124.1z M124.1,24.8v0.7h0.7v-0.7H124.1z M124.1,27.6v0.7
			h0.7v-0.7H124.1z M124.1,30.3v0.7h0.7v-0.7H124.1z M124.1,33v0.7h0.7V33H124.1z M125.5,20.8h-0.7v0.7h0.7V20.8z M125.5,23.5h-0.7
			v0.7h0.7V23.5z M124.8,26.2v0.7h0.7v-0.7H124.8z M125.5,29.6v-0.7h-0.7v0.7H125.5z M125.5,32.3v-0.7h-0.7v0.7H125.5z M126.2,19.4
			h-0.7v0.7h0.7V19.4z M125.5,22.1v0.7h0.7v-0.7H125.5z M125.5,24.8v0.7h0.7v-0.7H125.5z M125.5,27.6v0.7h0.7v-0.7H125.5z
			 M125.5,30.3v0.7h0.7v-0.7H125.5z M125.5,33v0.7h0.7V33H125.5z M126.9,20.8h-0.7v0.7h0.7V20.8z M126.9,23.5h-0.7v0.7h0.7V23.5z
			 M126.2,26.2v0.7h0.7v-0.7H126.2z M126.9,29.6v-0.7h-0.7v0.7H126.9z M126.9,32.3v-0.7h-0.7v0.7H126.9z"/>
		<path class="st1" d="M135.7,19.4h-0.7v0.7h0.7v2h-0.7v0.7h0.7v2h-0.7v0.7h0.7v2h-0.7v0.7h0.7v2h-0.7v0.7h0.7v2h-0.7v0.7h0.7v0.7
			h-8.2v-2h0.7v-0.7h-0.7v-2h0.7v-0.7h-0.7v-2h0.7v-0.7h-0.7v-2h0.7v-0.7h-0.7v-2h0.7v-0.7h-0.7v-2h0.7v-0.7h0.7v0.7h0.7v-0.7h0.7
			v0.7h0.7v-0.7h0.7v0.7h0.7v-0.7h0.7v0.7h0.7v-0.7h0.7v0.7h0.7v-0.7h0.7V19.4z M128.9,19.4h-0.7v0.7h0.7V19.4z M128.2,22.1v0.7h0.7
			v-0.7H128.2z M128.2,24.8v0.7h0.7v-0.7H128.2z M128.2,27.6v0.7h0.7v-0.7H128.2z M128.2,30.3v0.7h0.7v-0.7H128.2z M128.2,33v0.7
			h0.7V33H128.2z M129.6,20.8h-0.7v0.7h0.7V20.8z M129.6,23.5h-0.7v0.7h0.7V23.5z M129.6,26.2h-0.7v0.7h0.7V26.2z M129.6,29.6v-0.7
			h-0.7v0.7H129.6z M129.6,32.3v-0.7h-0.7v0.7H129.6z M130.3,19.4h-0.7v0.7h0.7V19.4z M129.6,22.1v0.7h0.7v-0.7H129.6z M129.6,24.8
			v0.7h0.7v-0.7H129.6z M130.3,28.2v-0.7h-0.7v0.7H130.3z M129.6,30.3v0.7h0.7v-0.7H129.6z M129.6,33v0.7h0.7V33H129.6z M131,20.8
			h-0.7v0.7h0.7V20.8z M131,23.5h-0.7v0.7h0.7V23.5z M130.3,26.2v0.7h0.7v-0.7H130.3z M131,29.6v-0.7h-0.7v0.7H131z M131,32.3v-0.7
			h-0.7v0.7H131z M131.7,19.4H131v0.7h0.7V19.4z M131,22.1v0.7h0.7v-0.7H131z M131,24.8v0.7h0.7v-0.7H131z M131,27.6v0.7h0.7v-0.7
			H131z M131,30.3v0.7h0.7v-0.7H131z M131,33v0.7h0.7V33H131z M132.3,20.8h-0.7v0.7h0.7V20.8z M132.3,23.5h-0.7v0.7h0.7V23.5z
			 M131.7,26.2v0.7h0.7v-0.7H131.7z M132.3,29.6v-0.7h-0.7v0.7H132.3z M132.3,32.3v-0.7h-0.7v0.7H132.3z M133,19.4h-0.7v0.7h0.7
			V19.4z M132.3,22.1v0.7h0.7v-0.7H132.3z M132.3,24.8v0.7h0.7v-0.7H132.3z M132.3,27.6v0.7h0.7v-0.7H132.3z M132.3,30.3v0.7h0.7
			v-0.7H132.3z M132.3,33v0.7h0.7V33H132.3z M133.7,20.8H133v0.7h0.7V20.8z M133.7,23.5H133v0.7h0.7V23.5z M133,26.2v0.7h0.7v-0.7
			H133z M133.7,29.6v-0.7H133v0.7H133.7z M133.7,32.3v-0.7H133v0.7H133.7z M134.4,19.4h-0.7v0.7h0.7V19.4z M133.7,22.1v0.7h0.7v-0.7
			H133.7z M133.7,24.8v0.7h0.7v-0.7H133.7z M133.7,27.6v0.7h0.7v-0.7H133.7z M133.7,30.3v0.7h0.7v-0.7H133.7z M133.7,33v0.7h0.7V33
			H133.7z M135.1,20.8h-0.7v0.7h0.7V20.8z M135.1,23.5h-0.7v0.7h0.7V23.5z M134.4,26.2v0.7h0.7v-0.7H134.4z M135.1,29.6v-0.7h-0.7
			v0.7H135.1z M135.1,32.3v-0.7h-0.7v0.7H135.1z"/>
		<path class="st1" d="M143.9,19.4h-0.7v0.7h0.7v2h-0.7v0.7h0.7v2h-0.7v0.7h0.7v2h-0.7v0.7h0.7v2h-0.7v0.7h0.7v2h-0.7v0.7h0.7v0.7
			h-8.2v-2h0.7v-0.7h-0.7v-2h0.7v-0.7h-0.7v-2h0.7v-0.7h-0.7v-2h0.7v-0.7h-0.7v-2h0.7v-0.7h-0.7v-2h0.7v-0.7h0.7v0.7h0.7v-0.7h0.7
			v0.7h0.7v-0.7h0.7v0.7h0.7v-0.7h0.7v0.7h0.7v-0.7h0.7v0.7h0.7v-0.7h0.7V19.4z M137.1,19.4h-0.7v0.7h0.7V19.4z M136.4,22.1v0.7h0.7
			v-0.7H136.4z M136.4,24.8v0.7h0.7v-0.7H136.4z M136.4,27.6v0.7h0.7v-0.7H136.4z M136.4,30.3v0.7h0.7v-0.7H136.4z M136.4,33v0.7
			h0.7V33H136.4z M137.8,20.8h-0.7v0.7h0.7V20.8z M137.8,23.5h-0.7v0.7h0.7V23.5z M137.8,26.2h-0.7v0.7h0.7V26.2z M137.8,29.6v-0.7
			h-0.7v0.7H137.8z M137.8,32.3v-0.7h-0.7v0.7H137.8z M138.5,19.4h-0.7v0.7h0.7V19.4z M137.8,22.1v0.7h0.7v-0.7H137.8z M137.8,24.8
			v0.7h0.7v-0.7H137.8z M138.5,28.2v-0.7h-0.7v0.7H138.5z M137.8,30.3v0.7h0.7v-0.7H137.8z M137.8,33v0.7h0.7V33H137.8z M139.2,20.8
			h-0.7v0.7h0.7V20.8z M139.2,23.5h-0.7v0.7h0.7V23.5z M138.5,26.2v0.7h0.7v-0.7H138.5z M139.2,29.6v-0.7h-0.7v0.7H139.2z
			 M139.2,32.3v-0.7h-0.7v0.7H139.2z M139.8,19.4h-0.7v0.7h0.7V19.4z M139.2,22.1v0.7h0.7v-0.7H139.2z M139.2,24.8v0.7h0.7v-0.7
			H139.2z M139.2,27.6v0.7h0.7v-0.7H139.2z M139.2,30.3v0.7h0.7v-0.7H139.2z M139.2,33v0.7h0.7V33H139.2z M140.5,20.8h-0.7v0.7h0.7
			V20.8z M140.5,23.5h-0.7v0.7h0.7V23.5z M139.8,26.2v0.7h0.7v-0.7H139.8z M140.5,29.6v-0.7h-0.7v0.7H140.5z M140.5,32.3v-0.7h-0.7
			v0.7H140.5z M141.2,19.4h-0.7v0.7h0.7V19.4z M140.5,22.1v0.7h0.7v-0.7H140.5z M140.5,24.8v0.7h0.7v-0.7H140.5z M140.5,27.6v0.7
			h0.7v-0.7H140.5z M140.5,30.3v0.7h0.7v-0.7H140.5z M140.5,33v0.7h0.7V33H140.5z M141.9,20.8h-0.7v0.7h0.7V20.8z M141.9,23.5h-0.7
			v0.7h0.7V23.5z M141.2,26.2v0.7h0.7v-0.7H141.2z M141.9,29.6v-0.7h-0.7v0.7H141.9z M141.9,32.3v-0.7h-0.7v0.7H141.9z M142.6,19.4
			h-0.7v0.7h0.7V19.4z M141.9,22.1v0.7h0.7v-0.7H141.9z M141.9,24.8v0.7h0.7v-0.7H141.9z M141.9,27.6v0.7h0.7v-0.7H141.9z
			 M141.9,30.3v0.7h0.7v-0.7H141.9z M141.9,33v0.7h0.7V33H141.9z M143.2,20.8h-0.7v0.7h0.7V20.8z M143.2,23.5h-0.7v0.7h0.7V23.5z
			 M142.6,26.2v0.7h0.7v-0.7H142.6z M143.2,29.6v-0.7h-0.7v0.7H143.2z M143.2,32.3v-0.7h-0.7v0.7H143.2z"/>
		<path class="st1" d="M152.1,19.4h-0.7v0.7h0.7v2h-0.7v0.7h0.7v2h-0.7v0.7h0.7v2h-0.7v0.7h0.7v2h-0.7v0.7h0.7v2h-0.7v0.7h0.7v0.7
			h-8.2v-2h0.7v-0.7h-0.7v-2h0.7v-0.7h-0.7v-2h0.7v-0.7h-0.7v-2h0.7v-0.7h-0.7v-2h0.7v-0.7h-0.7v-2h0.7v-0.7h0.7v0.7h0.7v-0.7h0.7
			v0.7h0.7v-0.7h0.7v0.7h0.7v-0.7h0.7v0.7h0.7v-0.7h0.7v0.7h0.7v-0.7h0.7V19.4z M145.3,19.4h-0.7v0.7h0.7V19.4z M144.6,22.1v0.7h0.7
			v-0.7H144.6z M144.6,24.8v0.7h0.7v-0.7H144.6z M144.6,27.6v0.7h0.7v-0.7H144.6z M144.6,30.3v0.7h0.7v-0.7H144.6z M144.6,33v0.7
			h0.7V33H144.6z M146,20.8h-0.7v0.7h0.7V20.8z M146,23.5h-0.7v0.7h0.7V23.5z M146,26.2h-0.7v0.7h0.7V26.2z M146,29.6v-0.7h-0.7v0.7
			H146z M146,32.3v-0.7h-0.7v0.7H146z M146.7,19.4H146v0.7h0.7V19.4z M146,22.1v0.7h0.7v-0.7H146z M146,24.8v0.7h0.7v-0.7H146z
			 M146.7,28.2v-0.7H146v0.7H146.7z M146,30.3v0.7h0.7v-0.7H146z M146,33v0.7h0.7V33H146z M147.3,20.8h-0.7v0.7h0.7V20.8z
			 M147.3,23.5h-0.7v0.7h0.7V23.5z M146.7,26.2v0.7h0.7v-0.7H146.7z M147.3,29.6v-0.7h-0.7v0.7H147.3z M147.3,32.3v-0.7h-0.7v0.7
			H147.3z M148,19.4h-0.7v0.7h0.7V19.4z M147.3,22.1v0.7h0.7v-0.7H147.3z M147.3,24.8v0.7h0.7v-0.7H147.3z M147.3,27.6v0.7h0.7v-0.7
			H147.3z M147.3,30.3v0.7h0.7v-0.7H147.3z M147.3,33v0.7h0.7V33H147.3z M148.7,20.8H148v0.7h0.7V20.8z M148.7,23.5H148v0.7h0.7
			V23.5z M148,26.2v0.7h0.7v-0.7H148z M148.7,29.6v-0.7H148v0.7H148.7z M148.7,32.3v-0.7H148v0.7H148.7z M149.4,19.4h-0.7v0.7h0.7
			V19.4z M148.7,22.1v0.7h0.7v-0.7H148.7z M148.7,24.8v0.7h0.7v-0.7H148.7z M148.7,27.6v0.7h0.7v-0.7H148.7z M148.7,30.3v0.7h0.7
			v-0.7H148.7z M148.7,33v0.7h0.7V33H148.7z M150.1,20.8h-0.7v0.7h0.7V20.8z M150.1,23.5h-0.7v0.7h0.7V23.5z M149.4,26.2v0.7h0.7
			v-0.7H149.4z M150.1,29.6v-0.7h-0.7v0.7H150.1z M150.1,32.3v-0.7h-0.7v0.7H150.1z M150.8,19.4h-0.7v0.7h0.7V19.4z M150.1,22.1v0.7
			h0.7v-0.7H150.1z M150.1,24.8v0.7h0.7v-0.7H150.1z M150.1,27.6v0.7h0.7v-0.7H150.1z M150.1,30.3v0.7h0.7v-0.7H150.1z M150.1,33
			v0.7h0.7V33H150.1z M151.4,20.8h-0.7v0.7h0.7V20.8z M151.4,23.5h-0.7v0.7h0.7V23.5z M150.8,26.2v0.7h0.7v-0.7H150.8z M151.4,29.6
			v-0.7h-0.7v0.7H151.4z M151.4,32.3v-0.7h-0.7v0.7H151.4z"/>
		<path class="st1" d="M160.3,19.4h-0.7v0.7h0.7v2h-0.7v0.7h0.7v2h-0.7v0.7h0.7v2h-0.7v0.7h0.7v2h-0.7v0.7h0.7v2h-0.7v0.7h0.7v0.7
			h-8.2v-2h0.7v-0.7h-0.7v-2h0.7v-0.7h-0.7v-2h0.7v-0.7h-0.7v-2h0.7v-0.7h-0.7v-2h0.7v-0.7h-0.7v-2h0.7v-0.7h0.7v0.7h0.7v-0.7h0.7
			v0.7h0.7v-0.7h0.7v0.7h0.7v-0.7h0.7v0.7h0.7v-0.7h0.7v0.7h0.7v-0.7h0.7V19.4z M153.5,19.4h-0.7v0.7h0.7V19.4z M152.8,22.1v0.7h0.7
			v-0.7H152.8z M152.8,24.8v0.7h0.7v-0.7H152.8z M152.8,27.6v0.7h0.7v-0.7H152.8z M152.8,30.3v0.7h0.7v-0.7H152.8z M152.8,33v0.7
			h0.7V33H152.8z M154.2,20.8h-0.7v0.7h0.7V20.8z M154.2,23.5h-0.7v0.7h0.7V23.5z M154.2,26.2h-0.7v0.7h0.7V26.2z M154.2,29.6v-0.7
			h-0.7v0.7H154.2z M154.2,32.3v-0.7h-0.7v0.7H154.2z M154.8,19.4h-0.7v0.7h0.7V19.4z M154.2,22.1v0.7h0.7v-0.7H154.2z M154.2,24.8
			v0.7h0.7v-0.7H154.2z M154.8,28.2v-0.7h-0.7v0.7H154.8z M154.2,30.3v0.7h0.7v-0.7H154.2z M154.2,33v0.7h0.7V33H154.2z M155.5,20.8
			h-0.7v0.7h0.7V20.8z M155.5,23.5h-0.7v0.7h0.7V23.5z M154.8,26.2v0.7h0.7v-0.7H154.8z M155.5,29.6v-0.7h-0.7v0.7H155.5z
			 M155.5,32.3v-0.7h-0.7v0.7H155.5z M156.2,19.4h-0.7v0.7h0.7V19.4z M155.5,22.1v0.7h0.7v-0.7H155.5z M155.5,24.8v0.7h0.7v-0.7
			H155.5z M155.5,27.6v0.7h0.7v-0.7H155.5z M155.5,30.3v0.7h0.7v-0.7H155.5z M155.5,33v0.7h0.7V33H155.5z M156.9,20.8h-0.7v0.7h0.7
			V20.8z M156.9,23.5h-0.7v0.7h0.7V23.5z M156.2,26.2v0.7h0.7v-0.7H156.2z M156.9,29.6v-0.7h-0.7v0.7H156.9z M156.9,32.3v-0.7h-0.7
			v0.7H156.9z M157.6,19.4h-0.7v0.7h0.7V19.4z M156.9,22.1v0.7h0.7v-0.7H156.9z M156.9,24.8v0.7h0.7v-0.7H156.9z M156.9,27.6v0.7
			h0.7v-0.7H156.9z M156.9,30.3v0.7h0.7v-0.7H156.9z M156.9,33v0.7h0.7V33H156.9z M158.3,20.8h-0.7v0.7h0.7V20.8z M158.3,23.5h-0.7
			v0.7h0.7V23.5z M157.6,26.2v0.7h0.7v-0.7H157.6z M158.3,29.6v-0.7h-0.7v0.7H158.3z M158.3,32.3v-0.7h-0.7v0.7H158.3z M158.9,19.4
			h-0.7v0.7h0.7V19.4z M158.3,22.1v0.7h0.7v-0.7H158.3z M158.3,24.8v0.7h0.7v-0.7H158.3z M158.3,27.6v0.7h0.7v-0.7H158.3z
			 M158.3,30.3v0.7h0.7v-0.7H158.3z M158.3,33v0.7h0.7V33H158.3z M159.6,20.8h-0.7v0.7h0.7V20.8z M159.6,23.5h-0.7v0.7h0.7V23.5z
			 M158.9,26.2v0.7h0.7v-0.7H158.9z M159.6,29.6v-0.7h-0.7v0.7H159.6z M159.6,32.3v-0.7h-0.7v0.7H159.6z"/>
		<path class="st1" d="M168.5,19.4h-0.7v0.7h0.7v2h-0.7v0.7h0.7v2h-0.7v0.7h0.7v2h-0.7v0.7h0.7v2h-0.7v0.7h0.7v2h-0.7v0.7h0.7v0.7
			h-8.2v-2h0.7v-0.7h-0.7v-2h0.7v-0.7h-0.7v-2h0.7v-0.7h-0.7v-2h0.7v-0.7h-0.7v-2h0.7v-0.7h-0.7v-2h0.7v-0.7h0.7v0.7h0.7v-0.7h0.7
			v0.7h0.7v-0.7h0.7v0.7h0.7v-0.7h0.7v0.7h0.7v-0.7h0.7v0.7h0.7v-0.7h0.7V19.4z M161.7,19.4H161v0.7h0.7V19.4z M161,22.1v0.7h0.7
			v-0.7H161z M161,24.8v0.7h0.7v-0.7H161z M161,27.6v0.7h0.7v-0.7H161z M161,30.3v0.7h0.7v-0.7H161z M161,33v0.7h0.7V33H161z
			 M162.3,20.8h-0.7v0.7h0.7V20.8z M162.3,23.5h-0.7v0.7h0.7V23.5z M162.3,26.2h-0.7v0.7h0.7V26.2z M162.3,29.6v-0.7h-0.7v0.7H162.3
			z M162.3,32.3v-0.7h-0.7v0.7H162.3z M163,19.4h-0.7v0.7h0.7V19.4z M162.3,22.1v0.7h0.7v-0.7H162.3z M162.3,24.8v0.7h0.7v-0.7
			H162.3z M163,28.2v-0.7h-0.7v0.7H163z M162.3,30.3v0.7h0.7v-0.7H162.3z M162.3,33v0.7h0.7V33H162.3z M163.7,20.8H163v0.7h0.7V20.8
			z M163.7,23.5H163v0.7h0.7V23.5z M163,26.2v0.7h0.7v-0.7H163z M163.7,29.6v-0.7H163v0.7H163.7z M163.7,32.3v-0.7H163v0.7H163.7z
			 M164.4,19.4h-0.7v0.7h0.7V19.4z M163.7,22.1v0.7h0.7v-0.7H163.7z M163.7,24.8v0.7h0.7v-0.7H163.7z M163.7,27.6v0.7h0.7v-0.7
			H163.7z M163.7,30.3v0.7h0.7v-0.7H163.7z M163.7,33v0.7h0.7V33H163.7z M165.1,20.8h-0.7v0.7h0.7V20.8z M165.1,23.5h-0.7v0.7h0.7
			V23.5z M164.4,26.2v0.7h0.7v-0.7H164.4z M165.1,29.6v-0.7h-0.7v0.7H165.1z M165.1,32.3v-0.7h-0.7v0.7H165.1z M165.8,19.4h-0.7v0.7
			h0.7V19.4z M165.1,22.1v0.7h0.7v-0.7H165.1z M165.1,24.8v0.7h0.7v-0.7H165.1z M165.1,27.6v0.7h0.7v-0.7H165.1z M165.1,30.3v0.7
			h0.7v-0.7H165.1z M165.1,33v0.7h0.7V33H165.1z M166.4,20.8h-0.7v0.7h0.7V20.8z M166.4,23.5h-0.7v0.7h0.7V23.5z M165.8,26.2v0.7
			h0.7v-0.7H165.8z M166.4,29.6v-0.7h-0.7v0.7H166.4z M166.4,32.3v-0.7h-0.7v0.7H166.4z M167.1,19.4h-0.7v0.7h0.7V19.4z M166.4,22.1
			v0.7h0.7v-0.7H166.4z M166.4,24.8v0.7h0.7v-0.7H166.4z M166.4,27.6v0.7h0.7v-0.7H166.4z M166.4,30.3v0.7h0.7v-0.7H166.4z
			 M166.4,33v0.7h0.7V33H166.4z M167.8,20.8h-0.7v0.7h0.7V20.8z M167.8,23.5h-0.7v0.7h0.7V23.5z M167.1,26.2v0.7h0.7v-0.7H167.1z
			 M167.8,29.6v-0.7h-0.7v0.7H167.8z M167.8,32.3v-0.7h-0.7v0.7H167.8z"/>
		<path class="st1" d="M176.7,19.4H176v0.7h0.7v2H176v0.7h0.7v2H176v0.7h0.7v2H176v0.7h0.7v2H176v0.7h0.7v2H176v0.7h0.7v0.7h-8.2v-2
			h0.7v-0.7h-0.7v-2h0.7v-0.7h-0.7v-2h0.7v-0.7h-0.7v-2h0.7v-0.7h-0.7v-2h0.7v-0.7h-0.7v-2h0.7v-0.7h0.7v0.7h0.7v-0.7h0.7v0.7h0.7
			v-0.7h0.7v0.7h0.7v-0.7h0.7v0.7h0.7v-0.7h0.7v0.7h0.7v-0.7h0.7V19.4z M169.9,19.4h-0.7v0.7h0.7V19.4z M169.2,22.1v0.7h0.7v-0.7
			H169.2z M169.2,24.8v0.7h0.7v-0.7H169.2z M169.2,27.6v0.7h0.7v-0.7H169.2z M169.2,30.3v0.7h0.7v-0.7H169.2z M169.2,33v0.7h0.7V33
			H169.2z M170.5,20.8h-0.7v0.7h0.7V20.8z M170.5,23.5h-0.7v0.7h0.7V23.5z M170.5,26.2h-0.7v0.7h0.7V26.2z M170.5,29.6v-0.7h-0.7
			v0.7H170.5z M170.5,32.3v-0.7h-0.7v0.7H170.5z M171.2,19.4h-0.7v0.7h0.7V19.4z M170.5,22.1v0.7h0.7v-0.7H170.5z M170.5,24.8v0.7
			h0.7v-0.7H170.5z M171.2,28.2v-0.7h-0.7v0.7H171.2z M170.5,30.3v0.7h0.7v-0.7H170.5z M170.5,33v0.7h0.7V33H170.5z M171.9,20.8
			h-0.7v0.7h0.7V20.8z M171.9,23.5h-0.7v0.7h0.7V23.5z M171.2,26.2v0.7h0.7v-0.7H171.2z M171.9,29.6v-0.7h-0.7v0.7H171.9z
			 M171.9,32.3v-0.7h-0.7v0.7H171.9z M172.6,19.4h-0.7v0.7h0.7V19.4z M171.9,22.1v0.7h0.7v-0.7H171.9z M171.9,24.8v0.7h0.7v-0.7
			H171.9z M171.9,27.6v0.7h0.7v-0.7H171.9z M171.9,30.3v0.7h0.7v-0.7H171.9z M171.9,33v0.7h0.7V33H171.9z M173.3,20.8h-0.7v0.7h0.7
			V20.8z M173.3,23.5h-0.7v0.7h0.7V23.5z M172.6,26.2v0.7h0.7v-0.7H172.6z M173.3,29.6v-0.7h-0.7v0.7H173.3z M173.3,32.3v-0.7h-0.7
			v0.7H173.3z M173.9,19.4h-0.7v0.7h0.7V19.4z M173.3,22.1v0.7h0.7v-0.7H173.3z M173.3,24.8v0.7h0.7v-0.7H173.3z M173.3,27.6v0.7
			h0.7v-0.7H173.3z M173.3,30.3v0.7h0.7v-0.7H173.3z M173.3,33v0.7h0.7V33H173.3z M174.6,20.8h-0.7v0.7h0.7V20.8z M174.6,23.5h-0.7
			v0.7h0.7V23.5z M173.9,26.2v0.7h0.7v-0.7H173.9z M174.6,29.6v-0.7h-0.7v0.7H174.6z M174.6,32.3v-0.7h-0.7v0.7H174.6z M175.3,19.4
			h-0.7v0.7h0.7V19.4z M174.6,22.1v0.7h0.7v-0.7H174.6z M174.6,24.8v0.7h0.7v-0.7H174.6z M174.6,27.6v0.7h0.7v-0.7H174.6z
			 M174.6,30.3v0.7h0.7v-0.7H174.6z M174.6,33v0.7h0.7V33H174.6z M176,20.8h-0.7v0.7h0.7V20.8z M176,23.5h-0.7v0.7h0.7V23.5z
			 M175.3,26.2v0.7h0.7v-0.7H175.3z M176,29.6v-0.7h-0.7v0.7H176z M176,32.3v-0.7h-0.7v0.7H176z"/>
		<path class="st1" d="M184.9,19.4h-0.7v0.7h0.7v2h-0.7v0.7h0.7v2h-0.7v0.7h0.7v2h-0.7v0.7h0.7v2h-0.7v0.7h0.7v2h-0.7v0.7h0.7v0.7
			h-8.2v-2h0.7v-0.7h-0.7v-2h0.7v-0.7h-0.7v-2h0.7v-0.7h-0.7v-2h0.7v-0.7h-0.7v-2h0.7v-0.7h-0.7v-2h0.7v-0.7h0.7v0.7h0.7v-0.7h0.7
			v0.7h0.7v-0.7h0.7v0.7h0.7v-0.7h0.7v0.7h0.7v-0.7h0.7v0.7h0.7v-0.7h0.7V19.4z M178,19.4h-0.7v0.7h0.7V19.4z M177.3,22.1v0.7h0.7
			v-0.7H177.3z M177.3,24.8v0.7h0.7v-0.7H177.3z M177.3,27.6v0.7h0.7v-0.7H177.3z M177.3,30.3v0.7h0.7v-0.7H177.3z M177.3,33v0.7
			h0.7V33H177.3z M178.7,20.8H178v0.7h0.7V20.8z M178.7,23.5H178v0.7h0.7V23.5z M178.7,26.2H178v0.7h0.7V26.2z M178.7,29.6v-0.7H178
			v0.7H178.7z M178.7,32.3v-0.7H178v0.7H178.7z M179.4,19.4h-0.7v0.7h0.7V19.4z M178.7,22.1v0.7h0.7v-0.7H178.7z M178.7,24.8v0.7
			h0.7v-0.7H178.7z M179.4,28.2v-0.7h-0.7v0.7H179.4z M178.7,30.3v0.7h0.7v-0.7H178.7z M178.7,33v0.7h0.7V33H178.7z M180.1,20.8
			h-0.7v0.7h0.7V20.8z M180.1,23.5h-0.7v0.7h0.7V23.5z M179.4,26.2v0.7h0.7v-0.7H179.4z M180.1,29.6v-0.7h-0.7v0.7H180.1z
			 M180.1,32.3v-0.7h-0.7v0.7H180.1z M180.8,19.4h-0.7v0.7h0.7V19.4z M180.1,22.1v0.7h0.7v-0.7H180.1z M180.1,24.8v0.7h0.7v-0.7
			H180.1z M180.1,27.6v0.7h0.7v-0.7H180.1z M180.1,30.3v0.7h0.7v-0.7H180.1z M180.1,33v0.7h0.7V33H180.1z M181.4,20.8h-0.7v0.7h0.7
			V20.8z M181.4,23.5h-0.7v0.7h0.7V23.5z M180.8,26.2v0.7h0.7v-0.7H180.8z M181.4,29.6v-0.7h-0.7v0.7H181.4z M181.4,32.3v-0.7h-0.7
			v0.7H181.4z M182.1,19.4h-0.7v0.7h0.7V19.4z M181.4,22.1v0.7h0.7v-0.7H181.4z M181.4,24.8v0.7h0.7v-0.7H181.4z M181.4,27.6v0.7
			h0.7v-0.7H181.4z M181.4,30.3v0.7h0.7v-0.7H181.4z M181.4,33v0.7h0.7V33H181.4z M182.8,20.8h-0.7v0.7h0.7V20.8z M182.8,23.5h-0.7
			v0.7h0.7V23.5z M182.1,26.2v0.7h0.7v-0.7H182.1z M182.8,29.6v-0.7h-0.7v0.7H182.8z M182.8,32.3v-0.7h-0.7v0.7H182.8z M183.5,19.4
			h-0.7v0.7h0.7V19.4z M182.8,22.1v0.7h0.7v-0.7H182.8z M182.8,24.8v0.7h0.7v-0.7H182.8z M182.8,27.6v0.7h0.7v-0.7H182.8z
			 M182.8,30.3v0.7h0.7v-0.7H182.8z M182.8,33v0.7h0.7V33H182.8z M184.2,20.8h-0.7v0.7h0.7V20.8z M184.2,23.5h-0.7v0.7h0.7V23.5z
			 M183.5,26.2v0.7h0.7v-0.7H183.5z M184.2,29.6v-0.7h-0.7v0.7H184.2z M184.2,32.3v-0.7h-0.7v0.7H184.2z"/>
		<path class="st1" d="M193,19.4h-0.7v0.7h0.7v2h-0.7v0.7h0.7v2h-0.7v0.7h0.7v2h-0.7v0.7h0.7v2h-0.7v0.7h0.7v2h-0.7v0.7h0.7v0.7
			h-8.2v-2h0.7v-0.7h-0.7v-2h0.7v-0.7h-0.7v-2h0.7v-0.7h-0.7v-2h0.7v-0.7h-0.7v-2h0.7v-0.7h-0.7v-2h0.7v-0.7h0.7v0.7h0.7v-0.7h0.7
			v0.7h0.7v-0.7h0.7v0.7h0.7v-0.7h0.7v0.7h0.7v-0.7h0.7v0.7h0.7v-0.7h0.7V19.4z M186.2,19.4h-0.7v0.7h0.7V19.4z M185.5,22.1v0.7h0.7
			v-0.7H185.5z M185.5,24.8v0.7h0.7v-0.7H185.5z M185.5,27.6v0.7h0.7v-0.7H185.5z M185.5,30.3v0.7h0.7v-0.7H185.5z M185.5,33v0.7
			h0.7V33H185.5z M186.9,20.8h-0.7v0.7h0.7V20.8z M186.9,23.5h-0.7v0.7h0.7V23.5z M186.9,26.2h-0.7v0.7h0.7V26.2z M186.9,29.6v-0.7
			h-0.7v0.7H186.9z M186.9,32.3v-0.7h-0.7v0.7H186.9z M187.6,19.4h-0.7v0.7h0.7V19.4z M186.9,22.1v0.7h0.7v-0.7H186.9z M186.9,24.8
			v0.7h0.7v-0.7H186.9z M187.6,28.2v-0.7h-0.7v0.7H187.6z M186.9,30.3v0.7h0.7v-0.7H186.9z M186.9,33v0.7h0.7V33H186.9z M188.3,20.8
			h-0.7v0.7h0.7V20.8z M188.3,23.5h-0.7v0.7h0.7V23.5z M187.6,26.2v0.7h0.7v-0.7H187.6z M188.3,29.6v-0.7h-0.7v0.7H188.3z
			 M188.3,32.3v-0.7h-0.7v0.7H188.3z M189,19.4h-0.7v0.7h0.7V19.4z M188.3,22.1v0.7h0.7v-0.7H188.3z M188.3,24.8v0.7h0.7v-0.7H188.3
			z M188.3,27.6v0.7h0.7v-0.7H188.3z M188.3,30.3v0.7h0.7v-0.7H188.3z M188.3,33v0.7h0.7V33H188.3z M189.6,20.8H189v0.7h0.7V20.8z
			 M189.6,23.5H189v0.7h0.7V23.5z M189,26.2v0.7h0.7v-0.7H189z M189.6,29.6v-0.7H189v0.7H189.6z M189.6,32.3v-0.7H189v0.7H189.6z
			 M190.3,19.4h-0.7v0.7h0.7V19.4z M189.6,22.1v0.7h0.7v-0.7H189.6z M189.6,24.8v0.7h0.7v-0.7H189.6z M189.6,27.6v0.7h0.7v-0.7
			H189.6z M189.6,30.3v0.7h0.7v-0.7H189.6z M189.6,33v0.7h0.7V33H189.6z M191,20.8h-0.7v0.7h0.7V20.8z M191,23.5h-0.7v0.7h0.7V23.5z
			 M190.3,26.2v0.7h0.7v-0.7H190.3z M191,29.6v-0.7h-0.7v0.7H191z M191,32.3v-0.7h-0.7v0.7H191z M191.7,19.4H191v0.7h0.7V19.4z
			 M191,22.1v0.7h0.7v-0.7H191z M191,24.8v0.7h0.7v-0.7H191z M191,27.6v0.7h0.7v-0.7H191z M191,30.3v0.7h0.7v-0.7H191z M191,33v0.7
			h0.7V33H191z M192.4,20.8h-0.7v0.7h0.7V20.8z M192.4,23.5h-0.7v0.7h0.7V23.5z M191.7,26.2v0.7h0.7v-0.7H191.7z M192.4,29.6v-0.7
			h-0.7v0.7H192.4z M192.4,32.3v-0.7h-0.7v0.7H192.4z"/>
		<path class="st1" d="M201.2,19.4h-0.7v0.7h0.7v2h-0.7v0.7h0.7v2h-0.7v0.7h0.7v2h-0.7v0.7h0.7v2h-0.7v0.7h0.7v2h-0.7v0.7h0.7v0.7
			H193v-2h0.7v-0.7H193v-2h0.7v-0.7H193v-2h0.7v-0.7H193v-2h0.7v-0.7H193v-2h0.7v-0.7H193v-2h0.7v-0.7h0.7v0.7h0.7v-0.7h0.7v0.7h0.7
			v-0.7h0.7v0.7h0.7v-0.7h0.7v0.7h0.7v-0.7h0.7v0.7h0.7v-0.7h0.7V19.4z M194.4,19.4h-0.7v0.7h0.7V19.4z M193.7,22.1v0.7h0.7v-0.7
			H193.7z M193.7,24.8v0.7h0.7v-0.7H193.7z M193.7,27.6v0.7h0.7v-0.7H193.7z M193.7,30.3v0.7h0.7v-0.7H193.7z M193.7,33v0.7h0.7V33
			H193.7z M195.1,20.8h-0.7v0.7h0.7V20.8z M195.1,23.5h-0.7v0.7h0.7V23.5z M195.1,26.2h-0.7v0.7h0.7V26.2z M195.1,29.6v-0.7h-0.7
			v0.7H195.1z M195.1,32.3v-0.7h-0.7v0.7H195.1z M195.8,19.4h-0.7v0.7h0.7V19.4z M195.1,22.1v0.7h0.7v-0.7H195.1z M195.1,24.8v0.7
			h0.7v-0.7H195.1z M195.8,28.2v-0.7h-0.7v0.7H195.8z M195.1,30.3v0.7h0.7v-0.7H195.1z M195.1,33v0.7h0.7V33H195.1z M196.5,20.8
			h-0.7v0.7h0.7V20.8z M196.5,23.5h-0.7v0.7h0.7V23.5z M195.8,26.2v0.7h0.7v-0.7H195.8z M196.5,29.6v-0.7h-0.7v0.7H196.5z
			 M196.5,32.3v-0.7h-0.7v0.7H196.5z M197.1,19.4h-0.7v0.7h0.7V19.4z M196.5,22.1v0.7h0.7v-0.7H196.5z M196.5,24.8v0.7h0.7v-0.7
			H196.5z M196.5,27.6v0.7h0.7v-0.7H196.5z M196.5,30.3v0.7h0.7v-0.7H196.5z M196.5,33v0.7h0.7V33H196.5z M197.8,20.8h-0.7v0.7h0.7
			V20.8z M197.8,23.5h-0.7v0.7h0.7V23.5z M197.1,26.2v0.7h0.7v-0.7H197.1z M197.8,29.6v-0.7h-0.7v0.7H197.8z M197.8,32.3v-0.7h-0.7
			v0.7H197.8z M198.5,19.4h-0.7v0.7h0.7V19.4z M197.8,22.1v0.7h0.7v-0.7H197.8z M197.8,24.8v0.7h0.7v-0.7H197.8z M197.8,27.6v0.7
			h0.7v-0.7H197.8z M197.8,30.3v0.7h0.7v-0.7H197.8z M197.8,33v0.7h0.7V33H197.8z M199.2,20.8h-0.7v0.7h0.7V20.8z M199.2,23.5h-0.7
			v0.7h0.7V23.5z M198.5,26.2v0.7h0.7v-0.7H198.5z M199.2,29.6v-0.7h-0.7v0.7H199.2z M199.2,32.3v-0.7h-0.7v0.7H199.2z M199.9,19.4
			h-0.7v0.7h0.7V19.4z M199.2,22.1v0.7h0.7v-0.7H199.2z M199.2,24.8v0.7h0.7v-0.7H199.2z M199.2,27.6v0.7h0.7v-0.7H199.2z
			 M199.2,30.3v0.7h0.7v-0.7H199.2z M199.2,33v0.7h0.7V33H199.2z M200.5,20.8h-0.7v0.7h0.7V20.8z M200.5,23.5h-0.7v0.7h0.7V23.5z
			 M199.9,26.2v0.7h0.7v-0.7H199.9z M200.5,29.6v-0.7h-0.7v0.7H200.5z M200.5,32.3v-0.7h-0.7v0.7H200.5z"/>
		<path class="st1" d="M209.4,19.4h-0.7v0.7h0.7v2h-0.7v0.7h0.7v2h-0.7v0.7h0.7v2h-0.7v0.7h0.7v2h-0.7v0.7h0.7v2h-0.7v0.7h0.7v0.7
			h-8.2v-2h0.7v-0.7h-0.7v-2h0.7v-0.7h-0.7v-2h0.7v-0.7h-0.7v-2h0.7v-0.7h-0.7v-2h0.7v-0.7h-0.7v-2h0.7v-0.7h0.7v0.7h0.7v-0.7h0.7
			v0.7h0.7v-0.7h0.7v0.7h0.7v-0.7h0.7v0.7h0.7v-0.7h0.7v0.7h0.7v-0.7h0.7V19.4z M202.6,19.4h-0.7v0.7h0.7V19.4z M201.9,22.1v0.7h0.7
			v-0.7H201.9z M201.9,24.8v0.7h0.7v-0.7H201.9z M201.9,27.6v0.7h0.7v-0.7H201.9z M201.9,30.3v0.7h0.7v-0.7H201.9z M201.9,33v0.7
			h0.7V33H201.9z M203.3,20.8h-0.7v0.7h0.7V20.8z M203.3,23.5h-0.7v0.7h0.7V23.5z M203.3,26.2h-0.7v0.7h0.7V26.2z M203.3,29.6v-0.7
			h-0.7v0.7H203.3z M203.3,32.3v-0.7h-0.7v0.7H203.3z M204,19.4h-0.7v0.7h0.7V19.4z M203.3,22.1v0.7h0.7v-0.7H203.3z M203.3,24.8
			v0.7h0.7v-0.7H203.3z M204,28.2v-0.7h-0.7v0.7H204z M203.3,30.3v0.7h0.7v-0.7H203.3z M203.3,33v0.7h0.7V33H203.3z M204.6,20.8H204
			v0.7h0.7V20.8z M204.6,23.5H204v0.7h0.7V23.5z M204,26.2v0.7h0.7v-0.7H204z M204.6,29.6v-0.7H204v0.7H204.6z M204.6,32.3v-0.7H204
			v0.7H204.6z M205.3,19.4h-0.7v0.7h0.7V19.4z M204.6,22.1v0.7h0.7v-0.7H204.6z M204.6,24.8v0.7h0.7v-0.7H204.6z M204.6,27.6v0.7
			h0.7v-0.7H204.6z M204.6,30.3v0.7h0.7v-0.7H204.6z M204.6,33v0.7h0.7V33H204.6z M206,20.8h-0.7v0.7h0.7V20.8z M206,23.5h-0.7v0.7
			h0.7V23.5z M205.3,26.2v0.7h0.7v-0.7H205.3z M206,29.6v-0.7h-0.7v0.7H206z M206,32.3v-0.7h-0.7v0.7H206z M206.7,19.4H206v0.7h0.7
			V19.4z M206,22.1v0.7h0.7v-0.7H206z M206,24.8v0.7h0.7v-0.7H206z M206,27.6v0.7h0.7v-0.7H206z M206,30.3v0.7h0.7v-0.7H206z
			 M206,33v0.7h0.7V33H206z M207.4,20.8h-0.7v0.7h0.7V20.8z M207.4,23.5h-0.7v0.7h0.7V23.5z M206.7,26.2v0.7h0.7v-0.7H206.7z
			 M207.4,29.6v-0.7h-0.7v0.7H207.4z M207.4,32.3v-0.7h-0.7v0.7H207.4z M208.1,19.4h-0.7v0.7h0.7V19.4z M207.4,22.1v0.7h0.7v-0.7
			H207.4z M207.4,24.8v0.7h0.7v-0.7H207.4z M207.4,27.6v0.7h0.7v-0.7H207.4z M207.4,30.3v0.7h0.7v-0.7H207.4z M207.4,33v0.7h0.7V33
			H207.4z M208.7,20.8h-0.7v0.7h0.7V20.8z M208.7,23.5h-0.7v0.7h0.7V23.5z M208.1,26.2v0.7h0.7v-0.7H208.1z M208.7,29.6v-0.7h-0.7
			v0.7H208.7z M208.7,32.3v-0.7h-0.7v0.7H208.7z"/>
		<path class="st1" d="M217.6,19.4h-0.7v0.7h0.7v2h-0.7v0.7h0.7v2h-0.7v0.7h0.7v2h-0.7v0.7h0.7v2h-0.7v0.7h0.7v2h-0.7v0.7h0.7v0.7
			h-8.2v-2h0.7v-0.7h-0.7v-2h0.7v-0.7h-0.7v-2h0.7v-0.7h-0.7v-2h0.7v-0.7h-0.7v-2h0.7v-0.7h-0.7v-2h0.7v-0.7h0.7v0.7h0.7v-0.7h0.7
			v0.7h0.7v-0.7h0.7v0.7h0.7v-0.7h0.7v0.7h0.7v-0.7h0.7v0.7h0.7v-0.7h0.7V19.4z M210.8,19.4h-0.7v0.7h0.7V19.4z M210.1,22.1v0.7h0.7
			v-0.7H210.1z M210.1,24.8v0.7h0.7v-0.7H210.1z M210.1,27.6v0.7h0.7v-0.7H210.1z M210.1,30.3v0.7h0.7v-0.7H210.1z M210.1,33v0.7
			h0.7V33H210.1z M211.5,20.8h-0.7v0.7h0.7V20.8z M211.5,23.5h-0.7v0.7h0.7V23.5z M211.5,26.2h-0.7v0.7h0.7V26.2z M211.5,29.6v-0.7
			h-0.7v0.7H211.5z M211.5,32.3v-0.7h-0.7v0.7H211.5z M212.1,19.4h-0.7v0.7h0.7V19.4z M211.5,22.1v0.7h0.7v-0.7H211.5z M211.5,24.8
			v0.7h0.7v-0.7H211.5z M212.1,28.2v-0.7h-0.7v0.7H212.1z M211.5,30.3v0.7h0.7v-0.7H211.5z M211.5,33v0.7h0.7V33H211.5z M212.8,20.8
			h-0.7v0.7h0.7V20.8z M212.8,23.5h-0.7v0.7h0.7V23.5z M212.1,26.2v0.7h0.7v-0.7H212.1z M212.8,29.6v-0.7h-0.7v0.7H212.8z
			 M212.8,32.3v-0.7h-0.7v0.7H212.8z M213.5,19.4h-0.7v0.7h0.7V19.4z M212.8,22.1v0.7h0.7v-0.7H212.8z M212.8,24.8v0.7h0.7v-0.7
			H212.8z M212.8,27.6v0.7h0.7v-0.7H212.8z M212.8,30.3v0.7h0.7v-0.7H212.8z M212.8,33v0.7h0.7V33H212.8z M214.2,20.8h-0.7v0.7h0.7
			V20.8z M214.2,23.5h-0.7v0.7h0.7V23.5z M213.5,26.2v0.7h0.7v-0.7H213.5z M214.2,29.6v-0.7h-0.7v0.7H214.2z M214.2,32.3v-0.7h-0.7
			v0.7H214.2z M214.9,19.4h-0.7v0.7h0.7V19.4z M214.2,22.1v0.7h0.7v-0.7H214.2z M214.2,24.8v0.7h0.7v-0.7H214.2z M214.2,27.6v0.7
			h0.7v-0.7H214.2z M214.2,30.3v0.7h0.7v-0.7H214.2z M214.2,33v0.7h0.7V33H214.2z M215.6,20.8h-0.7v0.7h0.7V20.8z M215.6,23.5h-0.7
			v0.7h0.7V23.5z M214.9,26.2v0.7h0.7v-0.7H214.9z M215.6,29.6v-0.7h-0.7v0.7H215.6z M215.6,32.3v-0.7h-0.7v0.7H215.6z M216.2,19.4
			h-0.7v0.7h0.7V19.4z M215.6,22.1v0.7h0.7v-0.7H215.6z M215.6,24.8v0.7h0.7v-0.7H215.6z M215.6,27.6v0.7h0.7v-0.7H215.6z
			 M215.6,30.3v0.7h0.7v-0.7H215.6z M215.6,33v0.7h0.7V33H215.6z M216.9,20.8h-0.7v0.7h0.7V20.8z M216.9,23.5h-0.7v0.7h0.7V23.5z
			 M216.2,26.2v0.7h0.7v-0.7H216.2z M216.9,29.6v-0.7h-0.7v0.7H216.9z M216.9,32.3v-0.7h-0.7v0.7H216.9z"/>
		<path class="st1" d="M225.8,19.4h-0.7v0.7h0.7v2h-0.7v0.7h0.7v2h-0.7v0.7h0.7v2h-0.7v0.7h0.7v2h-0.7v0.7h0.7v2h-0.7v0.7h0.7v0.7
			h-8.2v-2h0.7v-0.7h-0.7v-2h0.7v-0.7h-0.7v-2h0.7v-0.7h-0.7v-2h0.7v-0.7h-0.7v-2h0.7v-0.7h-0.7v-2h0.7v-0.7h0.7v0.7h0.7v-0.7h0.7
			v0.7h0.7v-0.7h0.7v0.7h0.7v-0.7h0.7v0.7h0.7v-0.7h0.7v0.7h0.7v-0.7h0.7V19.4z M219,19.4h-0.7v0.7h0.7V19.4z M218.3,22.1v0.7h0.7
			v-0.7H218.3z M218.3,24.8v0.7h0.7v-0.7H218.3z M218.3,27.6v0.7h0.7v-0.7H218.3z M218.3,30.3v0.7h0.7v-0.7H218.3z M218.3,33v0.7
			h0.7V33H218.3z M219.6,20.8H219v0.7h0.7V20.8z M219.6,23.5H219v0.7h0.7V23.5z M219.6,26.2H219v0.7h0.7V26.2z M219.6,29.6v-0.7H219
			v0.7H219.6z M219.6,32.3v-0.7H219v0.7H219.6z M220.3,19.4h-0.7v0.7h0.7V19.4z M219.6,22.1v0.7h0.7v-0.7H219.6z M219.6,24.8v0.7
			h0.7v-0.7H219.6z M220.3,28.2v-0.7h-0.7v0.7H220.3z M219.6,30.3v0.7h0.7v-0.7H219.6z M219.6,33v0.7h0.7V33H219.6z M221,20.8h-0.7
			v0.7h0.7V20.8z M221,23.5h-0.7v0.7h0.7V23.5z M220.3,26.2v0.7h0.7v-0.7H220.3z M221,29.6v-0.7h-0.7v0.7H221z M221,32.3v-0.7h-0.7
			v0.7H221z M221.7,19.4H221v0.7h0.7V19.4z M221,22.1v0.7h0.7v-0.7H221z M221,24.8v0.7h0.7v-0.7H221z M221,27.6v0.7h0.7v-0.7H221z
			 M221,30.3v0.7h0.7v-0.7H221z M221,33v0.7h0.7V33H221z M222.4,20.8h-0.7v0.7h0.7V20.8z M222.4,23.5h-0.7v0.7h0.7V23.5z
			 M221.7,26.2v0.7h0.7v-0.7H221.7z M222.4,29.6v-0.7h-0.7v0.7H222.4z M222.4,32.3v-0.7h-0.7v0.7H222.4z M223.1,19.4h-0.7v0.7h0.7
			V19.4z M222.4,22.1v0.7h0.7v-0.7H222.4z M222.4,24.8v0.7h0.7v-0.7H222.4z M222.4,27.6v0.7h0.7v-0.7H222.4z M222.4,30.3v0.7h0.7
			v-0.7H222.4z M222.4,33v0.7h0.7V33H222.4z M223.7,20.8h-0.7v0.7h0.7V20.8z M223.7,23.5h-0.7v0.7h0.7V23.5z M223.1,26.2v0.7h0.7
			v-0.7H223.1z M223.7,29.6v-0.7h-0.7v0.7H223.7z M223.7,32.3v-0.7h-0.7v0.7H223.7z M224.4,19.4h-0.7v0.7h0.7V19.4z M223.7,22.1v0.7
			h0.7v-0.7H223.7z M223.7,24.8v0.7h0.7v-0.7H223.7z M223.7,27.6v0.7h0.7v-0.7H223.7z M223.7,30.3v0.7h0.7v-0.7H223.7z M223.7,33
			v0.7h0.7V33H223.7z M225.1,20.8h-0.7v0.7h0.7V20.8z M225.1,23.5h-0.7v0.7h0.7V23.5z M224.4,26.2v0.7h0.7v-0.7H224.4z M225.1,29.6
			v-0.7h-0.7v0.7H225.1z M225.1,32.3v-0.7h-0.7v0.7H225.1z"/>
	</g>
	<g class="st0">
		<path class="st1" d="M118.3,40.9h-2.8v-2c0-0.6,0-0.9-0.1-1.1s-0.2-0.2-0.4-0.2c-0.2,0-0.4,0.1-0.4,0.3c-0.1,0.2-0.1,0.5-0.1,1.1
			v5.3c0,0.6,0,0.9,0.1,1.1c0.1,0.2,0.2,0.3,0.4,0.3c0.2,0,0.3-0.1,0.4-0.3c0.1-0.2,0.1-0.6,0.1-1.2v-1.4h2.8v0.4
			c0,1.2-0.1,2-0.2,2.5c-0.2,0.5-0.5,0.9-1,1.3s-1.2,0.6-2,0.6c-0.8,0-1.5-0.2-2-0.5s-0.9-0.7-1.1-1.3c-0.2-0.6-0.3-1.4-0.3-2.5
			v-3.3c0-0.8,0-1.4,0.1-1.8c0.1-0.4,0.2-0.8,0.5-1.2c0.3-0.4,0.6-0.7,1.1-0.9c0.5-0.2,1-0.3,1.6-0.3c0.8,0,1.5,0.2,2,0.5
			c0.5,0.3,0.9,0.8,1.1,1.3c0.2,0.5,0.3,1.3,0.3,2.3V40.9z"/>
		<path class="st1" d="M127.6,47.3h-2.3v-6.4l-1.1,6.4h-1.5l-1.2-6.4v6.4h-2.3V38h3.3l0.9,5.1l0.8-5.1h3.4V47.3z"/>
		<path class="st1" d="M134.6,42.8h-3.5v2c0,0.4,0,0.7,0.1,0.8c0.1,0.1,0.2,0.2,0.3,0.2c0.2,0,0.3-0.1,0.4-0.2
			c0.1-0.2,0.1-0.5,0.1-0.9v-1.2h2.6v0.7c0,0.6,0,1-0.1,1.3c-0.1,0.3-0.2,0.6-0.5,1c-0.3,0.3-0.6,0.6-1,0.8s-0.9,0.3-1.5,0.3
			c-0.6,0-1.1-0.1-1.5-0.3c-0.4-0.2-0.8-0.4-1-0.7c-0.2-0.3-0.4-0.6-0.5-1c-0.1-0.4-0.1-0.9-0.1-1.6v-2.7c0-0.8,0.1-1.5,0.3-1.9
			c0.2-0.5,0.6-0.8,1-1.1s1-0.4,1.6-0.4c0.8,0,1.4,0.2,1.9,0.5c0.5,0.3,0.8,0.7,1,1.2c0.2,0.5,0.3,1.2,0.3,2.1V42.8z M131.9,41.3
			v-0.7c0-0.5,0-0.8-0.1-0.9s-0.1-0.2-0.3-0.2c-0.2,0-0.3,0.1-0.3,0.2s-0.1,0.4-0.1,1v0.7H131.9z"/>
		<path class="st1" d="M138.2,38l0,0.8c0.2-0.3,0.5-0.6,0.8-0.7c0.3-0.2,0.6-0.2,0.9-0.2c0.4,0,0.8,0.1,1.1,0.4s0.5,0.5,0.6,0.8
			s0.1,0.8,0.1,1.6v3.9c0,0.8,0,1.4-0.1,1.8c-0.1,0.4-0.3,0.6-0.6,0.9c-0.3,0.2-0.7,0.3-1.1,0.3c-0.3,0-0.6-0.1-0.9-0.2
			c-0.3-0.2-0.5-0.4-0.8-0.7v2.1h-2.7V38H138.2z M139,40.7c0-0.6,0-0.9-0.1-1c0-0.1-0.2-0.2-0.3-0.2c-0.2,0-0.3,0.1-0.3,0.2
			c-0.1,0.1-0.1,0.5-0.1,1v3.9c0,0.6,0,0.9,0.1,1.1c0.1,0.1,0.2,0.2,0.3,0.2c0.2,0,0.3-0.1,0.3-0.2c0-0.1,0.1-0.4,0.1-0.9V40.7z"/>
		<path class="st1" d="M147.9,38v1.9h-1.5v7.4h-2.7v-7.4h-1.5V38H147.9z"/>
		<path class="st1" d="M154.7,44.6c0,0.9-0.1,1.5-0.3,1.8c-0.2,0.4-0.5,0.6-0.9,0.7s-1.1,0.1-2,0.1h-3.1V38h2.7v3.1h0.4
			c0.9,0,1.5,0.1,1.9,0.2s0.7,0.3,0.9,0.7c0.2,0.4,0.3,0.9,0.3,1.7V44.6z M152,44.3v-0.4c0-0.5,0-0.8-0.1-0.9
			c-0.1-0.1-0.3-0.2-0.8-0.2v2.5c0.4,0,0.6,0,0.7-0.1S152,44.8,152,44.3z"/>
	</g>
	<g class="st0">
		<path class="st1" d="M158.6,37h1.3v4.5c0.6,0,1-0.1,1.2-0.4s0.5-0.8,0.9-1.7c0.3-0.7,0.5-1.1,0.7-1.4c0.2-0.3,0.4-0.5,0.8-0.7
			s0.7-0.3,1.1-0.3c0.5,0,0.8,0,0.8,0v1.2c0,0-0.1,0-0.3,0c-0.1,0-0.2,0-0.3,0c-0.4,0-0.7,0.1-0.9,0.3c-0.2,0.2-0.4,0.7-0.7,1.3
			c-0.3,0.9-0.6,1.4-0.8,1.6c-0.2,0.2-0.5,0.4-0.8,0.5c0.6,0.2,1.3,0.8,1.9,1.8l2,3.4h-1.6l-1.6-2.8c-0.4-0.8-0.8-1.3-1.1-1.6
			c-0.3-0.3-0.7-0.4-1.2-0.4v4.8h-1.3V37z"/>
		<path class="st1" d="M164.7,38.4h-1.3v-1.4h1.3V38.4z M167.2,38.4h-1.3v-1.4h1.3V38.4z"/>
		<path class="st1" d="M166,42.3c0-1.7,0.4-3,1.3-4s2-1.4,3.4-1.4c0.9,0,1.7,0.2,2.4,0.7c0.7,0.5,1.3,1.1,1.7,1.9
			c0.4,0.8,0.6,1.7,0.6,2.8c0,1-0.2,2-0.6,2.8c-0.4,0.8-1,1.4-1.7,1.9c-0.7,0.4-1.5,0.6-2.4,0.6c-0.9,0-1.7-0.2-2.5-0.7
			c-0.7-0.5-1.3-1.1-1.6-1.9S166,43.2,166,42.3z M167.3,42.3c0,1.2,0.3,2.2,0.9,2.9c0.6,0.7,1.4,1.1,2.4,1.1c1,0,1.8-0.4,2.4-1.1
			c0.6-0.7,0.9-1.7,0.9-3.1c0-0.8-0.1-1.6-0.4-2.2c-0.3-0.6-0.7-1.1-1.2-1.5s-1.1-0.5-1.7-0.5c-0.9,0-1.7,0.3-2.4,1
			C167.6,39.6,167.3,40.7,167.3,42.3z"/>
		<path class="st1" d="M176.7,48.6c0,0.5-0.1,0.9-0.2,1.1c-0.2,0.3-0.5,0.5-1,0.7l-0.3-0.6c0.3-0.1,0.5-0.2,0.5-0.3
			c0.1-0.1,0.2-0.3,0.2-0.6h-0.6v-1.2h1.4V48.6z"/>
		<path class="st1" d="M175.3,50.1H174v-1.4h1.3V50.1z M177.8,50.1h-1.3v-1.4h1.3V50.1z"/>
		<path class="st1" d="M177.9,48.3c-0.1,1.2-0.8,1.8-2,1.8c-1.2,0-1.8-0.6-2-1.8h0.8c0.1,0.6,0.5,0.9,1.1,0.9c0.7,0,1.1-0.3,1.2-0.9
			H177.9z"/>
		<path class="st1" d="M178,38.9h-1.4l-0.7-1.2l-0.8,1.2h-1.4l1.4-2h1.3L178,38.9z"/>
		<path class="st1" d="M178,43.9h-0.8v-0.6c-0.3,0.5-0.7,0.8-1.3,0.8c-0.8,0-1.4-0.4-1.8-1.3c-0.2-0.4-0.3-0.9-0.3-1.4
			c0-1.1,0.3-1.9,1-2.3c0.3-0.2,0.7-0.3,1.1-0.3c0.6,0,1,0.2,1.3,0.7V37h0.8V43.9z M177.2,41.5c0-0.5-0.1-1-0.3-1.3
			c-0.2-0.4-0.6-0.7-1-0.7c-0.5,0-0.8,0.2-1,0.6c-0.2,0.3-0.3,0.8-0.3,1.3c0,0.5,0.1,0.9,0.3,1.3c0.2,0.4,0.6,0.6,1,0.6
			c0.4,0,0.8-0.2,1-0.6C177.1,42.4,177.2,42,177.2,41.5z"/>
		<path class="st1" d="M176.8,37.9l-1.9,1.3v-0.8l1.1-0.7l-1.1-0.7v-0.8l1.9,1.3V37.9z"/>
		<path class="st1" d="M177.9,43.9H177v-3.2c0-0.8-0.3-1.2-1-1.2c-0.6,0-0.9,0.2-1.1,0.7c-0.1,0.2-0.1,0.5-0.1,0.9v2.8H174v-7h0.8
			v2.5c0.4-0.5,0.9-0.7,1.4-0.7c0.8,0,1.2,0.3,1.5,0.8c0.1,0.3,0.2,0.6,0.2,1.1V43.9z"/>
		<path class="st1" d="M176.9,47.3V37h1.9l2.3,7.3c0.2,0.7,0.4,1.2,0.5,1.5c0.1-0.4,0.3-0.9,0.5-1.6l2.3-7.2h1.7v10.3H185v-8.6
			l-2.8,8.6H181l-2.8-8.7v8.7H176.9z"/>
		<path class="st1" d="M188.5,49c0,0.4-0.1,0.7-0.3,0.9c-0.2,0.2-0.5,0.4-0.8,0.4c-0.3,0-0.6-0.1-0.9-0.4c-0.2-0.3-0.3-0.6-0.3-0.9
			c0-0.3,0.1-0.6,0.4-0.9s0.5-0.4,0.8-0.4c0.3,0,0.6,0.1,0.9,0.4C188.3,48.3,188.5,48.6,188.5,49z M188,49c0-0.2-0.1-0.4-0.2-0.5
			c-0.1-0.1-0.3-0.2-0.5-0.2c-0.2,0-0.4,0.1-0.5,0.2c-0.1,0.1-0.2,0.3-0.2,0.5c0,0.2,0.1,0.4,0.2,0.5c0.1,0.2,0.3,0.2,0.5,0.2
			s0.4-0.1,0.5-0.2C187.9,49.4,188,49.2,188,49z"/>
		<path class="st1" d="M188.2,37.9l-1.9,1.3v-0.8l1.1-0.7l-1.1-0.7v-0.8l1.9,1.3V37.9z"/>
		<path class="st1" d="M185.6,34.5h1.6l-1.5,2h-1L185.6,34.5z"/>
		<path class="st1" d="M188.3,47.3V37h1.9l2.3,7.3c0.2,0.7,0.4,1.2,0.5,1.5c0.1-0.4,0.3-0.9,0.5-1.6l2.3-7.2h1.7v10.3h-1.2v-8.6
			l-2.8,8.6h-1.2l-2.8-8.7v8.7H188.3z"/>
		<path class="st1" d="M199.8,49.3H199v0.8h-0.7v-0.8h-0.8v-0.7h0.8v-0.8h0.7v0.8h0.8V49.3z"/>
		<path class="st1" d="M198.6,48.9l-1.9,1.3v-0.8l1.1-0.7l-1.1-0.7v-0.8l1.9,1.3V48.9z M201.4,49.7h-0.8l-0.6-1.2l-0.6,1.2h-0.8
			l1.2-2h0.3L201.4,49.7z"/>
		<path class="st1" d="M199.3,39.8l-0.3,0.5c-0.4-0.2-0.7-0.5-0.9-0.9c-0.1-0.3-0.2-0.7-0.2-1.4v-1.2h1.3v1.5h-0.6
			C198.6,39.1,198.9,39.6,199.3,39.8z"/>
		<path class="st1" d="M200.6,38.8h-0.8c-0.1-0.6-0.5-0.9-1.2-0.9c-0.6,0-1,0.3-1.1,0.9h-0.8c0.1-1.2,0.8-1.8,2-1.8
			C199.8,37,200.5,37.6,200.6,38.8z"/>
		<path class="st1" d="M198.6,36.9l-1.4,2h-1l0.8-2H198.6z M201,36.9l-1.4,2h-1l0.8-2H201z"/>
		<path class="st1" d="M198.7,37h1.3l3.2,6.3L206,37h1.3l-3.7,8c-0.5,1-0.8,1.7-1.1,2s-0.7,0.5-1.3,0.5c-0.3,0-0.7-0.1-1.2-0.2V46
			c0.3,0.2,0.7,0.3,1.1,0.3c0.3,0,0.6-0.1,0.8-0.3c0.2-0.2,0.5-0.7,0.8-1.5L198.7,37z"/>
		<path class="st1" d="M209.5,43.9h-0.9c-0.1-0.2-0.1-0.4-0.2-0.6c-0.6,0.5-1.1,0.7-1.8,0.7c-0.5,0-0.8-0.1-1.1-0.3
			c-0.3-0.3-0.5-0.6-0.5-1.1c0-0.5,0.2-0.9,0.6-1.2c0.2-0.1,0.4-0.2,0.6-0.3c0.1,0,0.4-0.1,0.7-0.1c0.7-0.1,1.1-0.2,1.4-0.3l0-0.2
			c0-0.3-0.1-0.6-0.2-0.7c-0.2-0.2-0.5-0.3-0.9-0.3c-0.4,0-0.6,0.1-0.8,0.2c-0.2,0.1-0.3,0.4-0.4,0.8l-0.8-0.1
			c0.1-0.7,0.5-1.2,1.1-1.4c0.3-0.1,0.7-0.2,1.1-0.2c0.8,0,1.3,0.2,1.6,0.5c0.1,0.2,0.2,0.4,0.3,0.6c0,0.1,0,0.4,0,0.8v1.1
			c0,0.7,0,1,0,1.1C209.3,43.3,209.4,43.7,209.5,43.9z M208.4,41.7v-0.3c-0.3,0.1-0.7,0.2-1.3,0.3c-0.2,0-0.5,0.1-0.8,0.2
			c-0.2,0.1-0.3,0.4-0.3,0.6c0,0.5,0.3,0.8,1,0.8c0.7,0,1.1-0.3,1.4-0.8C208.4,42.4,208.4,42.1,208.4,41.7z"/>
		<path class="st1" d="M209.3,38.8h-0.8c-0.1-0.6-0.5-0.9-1.2-0.9c-0.6,0-1,0.3-1.1,0.9h-0.8c0.1-1.2,0.8-1.8,2-1.8
			C208.5,37,209.1,37.6,209.3,38.8z"/>
		<path class="st1" d="M208.4,47.3V37h1.3v4.2h5.1V37h1.3v10.3h-1.3v-4.8h-5.1v4.8H208.4z"/>
		<path class="st1" d="M218.4,49.3h-1.6v0.8h-0.7v-2.3h0.7v0.8h1.6V49.3z"/>
		<path class="st1" d="M217.1,48.9l-1.9,1.3v-0.8l1.1-0.7l-1.1-0.7v-0.8l1.9,1.3V48.9z M219.9,49.7h-0.8l-0.6-1.2l-0.6,1.2h-0.8
			l1.2-2h0.3L219.9,49.7z"/>
		<path class="st1" d="M219.1,43.9h-0.7v-0.7c-0.4,0.6-0.9,0.9-1.5,0.9c-0.6,0-1.1-0.2-1.3-0.6c-0.1-0.2-0.2-0.4-0.2-0.6
			c0-0.2-0.1-0.4-0.1-0.8v-3.1h0.8v2.8c0,0.4,0,0.7,0.1,0.9c0.1,0.5,0.4,0.7,0.9,0.7c0.6,0,0.9-0.2,1.1-0.7c0.1-0.2,0.1-0.6,0.1-1
			v-2.7h0.8V43.9z"/>
		<path class="st1" d="M219.7,38.9h-1v-1.6h-3v1.6h-1v-2.6h5V38.9z"/>
		<path class="st1" d="M217.5,39.3h-0.7V37h0.7V39.3z"/>
		<path class="st1" d="M218.2,37h1.2v8.1l5.2-8.1h1.3v10.3h-1.2v-8.1l-5.2,8.1h-1.3V37z"/>
		<path class="st1" d="M227.9,37.9l-1.9,1.3v-0.8l1.1-0.7l-1.1-0.7v-0.8l1.9,1.3V37.9z"/>
		<path class="st1" d="M225.2,35.8c0.2-0.1,0.4-0.2,0.4-0.3c0-0.1-0.1-0.2-0.2-0.3c-0.2-0.1-0.5-0.2-0.9-0.2c-0.1,0-0.3,0-0.6,0
			l-0.1-0.7c0.2,0,0.5-0.1,1,0c0.5,0,1,0.1,1.3,0.3c0.4,0.2,0.6,0.5,0.6,0.8c0,0.5-0.4,0.8-1.2,0.9v0.4h-0.7v-0.8
			C225,35.9,225.1,35.8,225.2,35.8z"/>
		<path class="st1" d="M235,43.7l1.3,0.3c-0.3,1.1-0.8,2-1.5,2.6c-0.7,0.6-1.6,0.9-2.6,0.9c-1.1,0-1.9-0.2-2.6-0.7
			c-0.7-0.5-1.2-1.1-1.5-2s-0.5-1.8-0.5-2.8c0-1.1,0.2-2,0.6-2.8s0.9-1.4,1.7-1.8s1.5-0.6,2.4-0.6c1,0,1.8,0.3,2.5,0.8
			s1.1,1.3,1.4,2.2l-1.3,0.3c-0.2-0.7-0.6-1.3-1-1.6c-0.4-0.3-1-0.5-1.6-0.5c-0.8,0-1.4,0.2-1.9,0.6c-0.5,0.4-0.9,0.9-1.1,1.5
			c-0.2,0.6-0.3,1.3-0.3,2c0,0.9,0.1,1.6,0.4,2.3c0.2,0.7,0.6,1.1,1.1,1.5s1.1,0.5,1.7,0.5c0.7,0,1.3-0.2,1.8-0.7
			S234.8,44.5,235,43.7z"/>
		<path class="st1" d="M236.9,50.3c-0.3,0-0.6-0.1-0.9-0.4s-0.3-0.6-0.3-0.9c0-0.3,0.1-0.6,0.4-0.9c0.2-0.2,0.5-0.4,0.8-0.4v0.5
			c-0.2,0-0.4,0.1-0.5,0.2c-0.1,0.2-0.2,0.3-0.2,0.5c0,0.2,0.1,0.4,0.2,0.5c0.1,0.2,0.3,0.2,0.5,0.2V50.3z"/>
		<path class="st1" d="M234.6,35.8c0.2-0.1,0.4-0.2,0.4-0.3c0-0.1-0.1-0.2-0.2-0.3c-0.2-0.1-0.5-0.2-0.9-0.2c-0.1,0-0.3,0-0.6,0
			l-0.1-0.7c0.2,0,0.5-0.1,1,0c0.5,0,1,0.1,1.3,0.3c0.4,0.2,0.6,0.5,0.6,0.8c0,0.5-0.4,0.8-1.2,0.9v0.4h-0.7v-0.8
			C234.4,35.9,234.5,35.8,234.6,35.8z"/>
		<path class="st1" d="M239.9,47.3v-9.1h-3.2V37h7.7v1.2h-3.2v9.1H239.9z"/>
		<path class="st1" d="M247.4,49H241v-0.9h6.4V49z M247.4,50.3H241v-0.9h6.4V50.3z"/>
		<path class="st1" d="M245.4,48.5h-0.8v1.6h-0.7v-1.6h-0.8v-0.7h2.3V48.5z"/>
		<path class="st1" d="M245.5,48.9c-0.3,0.1-0.6,0.2-1,0.2c0.2,0.2,0.4,0.4,0.7,0.8l-0.5,0.3c-0.1-0.2-0.3-0.5-0.5-0.9
			c-0.2,0.4-0.4,0.7-0.5,0.9l-0.5-0.3c0.3-0.4,0.5-0.7,0.6-0.8c-0.3-0.1-0.7-0.1-0.9-0.2l0.2-0.6c0.4,0.1,0.7,0.3,0.9,0.4
			c0-0.5-0.1-0.8-0.1-1h0.6c0,0.2,0,0.6-0.1,1c0.3-0.1,0.6-0.3,0.9-0.4L245.5,48.9z"/>
		<path class="st1" d="M243.6,38.4h-1.3v-1.4h1.3V38.4z M246.1,38.4h-1.3v-1.4h1.3V38.4z"/>
		<path class="st1" d="M244.6,38h-0.8v-1h0.8V38z M244.6,43.9h-0.8v-5h0.8V43.9z"/>
		<path class="st1" d="M246.5,41.4c0,1.2-0.4,2-1.1,2.4c-0.4,0.2-0.7,0.3-1.2,0.3c-0.7,0-1.3-0.2-1.7-0.8c-0.4-0.5-0.6-1.1-0.6-1.9
			c0-0.9,0.2-1.6,0.7-2.1c0.4-0.4,0.9-0.6,1.5-0.6c0.7,0,1.3,0.2,1.7,0.7C246.3,40,246.5,40.6,246.5,41.4z M245.6,41.4
			c0-0.5-0.1-1-0.3-1.3c-0.2-0.4-0.6-0.6-1.1-0.6c-0.5,0-0.9,0.2-1.1,0.6c-0.2,0.3-0.3,0.8-0.3,1.3c0,0.5,0.1,1,0.3,1.3
			c0.2,0.4,0.6,0.6,1.1,0.6s0.9-0.2,1.1-0.6C245.5,42.4,245.6,41.9,245.6,41.4z"/>
		<path class="st1" d="M244.2,47.3L248,37h1.4l4,10.3h-1.5l-1.1-3.1h-4.1l-1.1,3.1H244.2z M247,43h3.3l-1-2.8
			c-0.3-0.9-0.5-1.6-0.7-2.1c-0.1,0.7-0.3,1.3-0.5,2L247,43z"/>
		<path class="st1" d="M254.3,47.3V37h1.9l2.3,7.3c0.2,0.7,0.4,1.2,0.5,1.5c0.1-0.4,0.3-0.9,0.5-1.6l2.3-7.2h1.7v10.3h-1.2v-8.6
			l-2.8,8.6h-1.2l-2.8-8.7v8.7H254.3z"/>
		<path class="st1" d="M265.3,37.9c0,0.4-0.1,0.7-0.3,0.9c-0.2,0.3-0.5,0.4-0.9,0.4v-0.5c0.2,0,0.4-0.1,0.5-0.2
			c0.1-0.2,0.2-0.3,0.2-0.5c0-0.2-0.1-0.4-0.2-0.5c-0.1-0.2-0.3-0.2-0.5-0.2v-0.5c0.3,0,0.6,0.1,0.8,0.4S265.3,37.5,265.3,37.9z"/>
		<path class="st1" d="M265.9,37.9c0,0.4-0.1,0.7-0.3,0.9c-0.2,0.2-0.5,0.4-0.8,0.4c-0.3,0-0.6-0.1-0.9-0.4
			c-0.2-0.3-0.3-0.6-0.3-0.9c0-0.3,0.1-0.6,0.4-0.9s0.5-0.4,0.8-0.4c0.3,0,0.6,0.1,0.9,0.4C265.8,37.3,265.9,37.6,265.9,37.9z
			 M265.4,37.9c0-0.2-0.1-0.4-0.2-0.5c-0.1-0.2-0.3-0.2-0.5-0.2c-0.2,0-0.4,0.1-0.5,0.2c-0.1,0.1-0.2,0.3-0.2,0.5
			c0,0.2,0.1,0.4,0.2,0.5c0.1,0.2,0.3,0.2,0.5,0.2s0.4-0.1,0.5-0.2S265.4,38.1,265.4,37.9z"/>
		<path class="st1" d="M265.7,47.3c0.3-0.4,0.8-0.8,1.3-1.1l1.1,1.4c-0.6,0.4-1,0.8-1.3,1.1L265.7,47.3z M267.1,45
			c-0.3-3-0.7-5.2-1-6.8l1.7-1.4C267.7,38.9,267.4,41.6,267.1,45z"/>
	</g>
	<path class="st1" d="M235.5,54.9H111.7c-0.3,0-0.6-0.2-0.6-0.5l0,0c0-0.3,0.2-0.5,0.6-0.5h123.8c0.3,0,0.6,0.2,0.6,0.5l0,0
		C236.1,54.7,235.8,54.9,235.5,54.9z"/>
</g>
<g>
	<path class="st2" d="M103.8,4v49.4c0,1.4-1.3,2.6-2.8,2.6H2.8C1.3,56,0,54.8,0,53.4V4c0-1.4,1.2-2.6,2.8-2.6h98.2
		C102.6,1.4,103.8,2.6,103.8,4z"/>
	<g>
		<g>
			<path d="M31.7,21.7c0,2.2-0.5,4-1.6,5.7c-1.1,1.6-2.6,2.9-4.6,3.8s-4.4,1.3-7,1.3h-2.8c0,2.8,0,5.7,0,8.5
				c-3.2,1.6-6.3,3.3-9.4,4.9c0-11.6,0-23.1,0-34.7h12.8c4.4,0,7.6,0.9,9.7,2.5C30.7,15.6,31.7,18.2,31.7,21.7z M21.8,22
				c0-1.3-0.3-2.3-1.1-2.9c-0.8-0.7-1.9-1-3.3-1h-1.7v7.7h2.1C20.4,25.9,21.8,24.6,21.8,22z"/>
			<path d="M97.7,33.1c0,3.1-1.1,5.5-3.3,7.1s-5.2,2.5-9.3,2.5H71V11.4h13.3c8.3,0,12.4,2.5,12.4,7.5c0,1.1-0.2,2.1-0.8,2.9
				c-0.5,0.9-1.3,1.7-2.4,2.4c-1.1,0.7-2.3,1.2-3.5,1.4v0.1c1.5,0.2,2.8,0.7,4,1.3c1.2,0.7,2.1,1.6,2.7,2.6
				C97.4,30.8,97.7,31.9,97.7,33.1z M86.7,20.6c0-2-1.5-2.9-4.6-2.9h-1.7v5.9h2.7c1.1,0,1.9-0.3,2.6-0.9
				C86.4,22.2,86.7,21.4,86.7,20.6z M87.7,33c0-0.9-0.3-1.6-1-2.2C86,30.3,85.2,30,84.1,30h-3.7v6.3h3.2c1.3,0,2.3-0.3,3.1-0.9
				C87.3,34.9,87.7,34,87.7,33z"/>
			<path d="M61.2,30.5c1.1,0.4,2.2,0.8,3.3,1.1c-0.2,1.2-1.1,5.1-4.7,8.2c-3.4,2.9-7.2,3.3-8.6,3.4c-0.5,0-4.6,0.2-8.6-2
				c-2.4-1.3-4.3-3.1-5.6-5.5c-1.3-2.3-1.9-5-1.9-8.1c0-0.2,0-0.4,0-0.7c0-0.2,0-0.4,0-0.7c0-3.1,0.7-5.8,1.9-8.1
				c1.3-2.4,3.2-4.1,5.6-5.5c4-2.2,8.1-2,8.6-2c1.4,0.1,5.1,0.4,8.6,3.4c3.6,3.1,4.5,7,4.7,8.2c-1.1,0.3-2.2,0.8-3.3,1.1
				c-1.4,0.5-2.8,1-4.3,1.5c0.1-0.3,0.7-2.4-0.7-4.3c-1.1-1.5-2.6-1.9-3.1-2c-3.1-0.7-5.6,1.9-5.9,2.2c-1.1,1.1-1.9,2.5-2.1,4.3
				c0,0.1,0,0.2,0,0.4c0,0.3-0.1,0.5-0.1,0.9c0,0.1,0,0.2,0,0.4c0,0.1,0,0.3,0,0.4c0,0.3,0,0.5,0.1,0.9c0,0.1,0,0.3,0,0.4
				c0.2,1.7,1,3.2,2.1,4.3c0.3,0.3,2.8,2.8,5.9,2.2c0.4-0.1,2.1-0.4,3.1-2c1.3-1.9,0.8-3.9,0.7-4.3C58.3,29.4,59.8,30,61.2,30.5z"/>
			<rect x="6.2" y="5.4" width="90.2" height="3.2"/>
			<rect x="6.2" y="48.8" width="90.2" height="3.2"/>
		</g>
	</g>
</g>
</svg>
